<svg width="358" height="44" viewBox="0 0 358 44" fill="none" xmlns="http://www.w3.org/2000/svg">
<rect width="358" height="44" rx="8" fill="#FEE500"/>
<g clip-path="url(#clip0_154_405)">
<path fill-rule="evenodd" clip-rule="evenodd" d="M134 13.6C129.029 13.6 125 16.7129 125 20.5523C125 22.94 126.558 25.0449 128.932 26.2969L127.933 29.9445C127.845 30.2668 128.213 30.5237 128.496 30.3369L132.873 27.4482C133.243 27.4838 133.618 27.5046 134 27.5046C138.97 27.5046 143 24.3918 143 20.5523C143 16.7129 138.97 13.6 134 13.6" fill="black"/>
</g>
<path d="M158.215 15.715C158.2 20.29 156.115 23.35 152.29 25.36L151.3 24.25C153.235 23.365 154.855 21.94 155.77 20.095L151.855 20.515L151.615 19.18L156.28 18.835C156.445 18.235 156.565 17.62 156.61 16.96H152.29V15.715H158.215ZM161.83 14.32V19.54H163.9V20.815H161.83V27.685H160.285V14.32H161.83ZM171.193 15.715C171.178 20.29 169.093 23.35 165.268 25.36L164.278 24.25C166.213 23.365 167.833 21.94 168.748 20.095L164.833 20.515L164.593 19.18L169.258 18.835C169.423 18.235 169.543 17.62 169.588 16.96H165.268V15.715H171.193ZM174.808 14.32V19.54H176.878V20.815H174.808V27.685H173.263V14.32H174.808ZM189.482 25.975H177.407V24.745H182.657V22.465C180.182 22.225 178.607 20.815 178.607 18.82C178.607 16.615 180.542 15.145 183.437 15.145C186.377 15.145 188.297 16.615 188.297 18.82C188.297 20.83 186.692 22.24 184.187 22.48V24.745H189.482V25.975ZM186.752 18.835C186.752 17.41 185.447 16.405 183.437 16.405C181.472 16.405 180.152 17.41 180.152 18.835C180.152 20.245 181.472 21.205 183.437 21.205C185.432 21.205 186.752 20.245 186.752 18.835ZM205.231 22.525H201.106V24.76H206.401V25.99H194.326V24.76H199.576V22.525H195.871V18.205H203.311V16.48H195.826V15.25H204.841V19.45H197.416V21.28H205.231V22.525ZM219.379 25.735H207.304V24.49H219.379V25.735ZM217.804 15.76C217.804 19.3 217.579 21.805 217.219 23.56L215.704 23.365C216.034 22.03 216.259 19.135 216.259 16.975H208.699V15.76H217.804ZM231.278 24.01H229.748V14.32H231.278V24.01ZM231.593 27.295H222.443V23.095H223.973V26.065H231.593V27.295ZM227.528 18.58C227.528 20.485 226.148 21.85 224.108 21.85C222.068 21.85 220.658 20.485 220.658 18.595C220.658 16.69 222.053 15.31 224.108 15.31C226.148 15.31 227.528 16.675 227.528 18.58ZM225.998 18.58C225.998 17.41 225.278 16.585 224.108 16.585C222.968 16.585 222.203 17.44 222.203 18.58C222.203 19.675 222.968 20.545 224.108 20.545C225.278 20.545 225.998 19.675 225.998 18.58Z" fill="black" fill-opacity="0.85"/>
<defs>
<clipPath id="clip0_154_405">
<rect width="17.9999" height="18" fill="white" transform="translate(125 13)"/>
</clipPath>
</defs>
</svg>
