<svg width="160" height="84" viewBox="0 0 160 84" fill="none" xmlns="http://www.w3.org/2000/svg">
<g clip-path="url(#clip0_38_4003)">
<path d="M41.8649 31.1579C41.3545 31.1579 40.8553 31.0569 40.3841 30.8606C39.913 30.6643 39.4923 30.3839 39.1277 30.0193L32.4699 23.3615C32.1334 23.0362 31.8529 22.6267 31.651 22.1668C31.4547 21.7069 31.3538 21.2189 31.3481 20.7197C31.3481 20.2205 31.4379 19.7325 31.6286 19.267C31.8193 18.8015 32.0941 18.3864 32.4475 18.033C32.8009 17.6797 33.2159 17.4048 33.6815 17.2141C34.1414 17.0234 34.635 16.9449 35.1342 16.9337C35.6334 16.9337 36.1213 17.0403 36.5813 17.2366C37.0412 17.4329 37.4506 17.7189 37.7984 18.0779L41.8649 22.1444L52.6957 11.3136C53.0434 10.9658 53.4529 10.691 53.9128 10.5003C54.8271 10.1245 55.8703 10.1189 56.7846 10.5003C57.2389 10.691 57.654 10.9658 58.0017 11.3136C58.7084 12.0203 59.1011 12.9626 59.1011 13.9666C59.1011 14.9706 58.7084 15.9129 58.0017 16.6196L44.602 30.0193C44.243 30.3783 43.8168 30.6643 43.3456 30.8606C42.8745 31.0569 42.3753 31.1579 41.8649 31.1579Z" fill="#FF5CA0"/>
<path d="M0 36.2061C0 34.9834 0.661852 34.3215 1.8846 34.3215H6.69144C7.91418 34.3215 8.57604 34.9834 8.57604 36.2061V37.3391C10.8364 35.5499 13.4782 34.3215 16.4902 34.3215C26.5751 34.3215 32.7897 41.1083 32.7897 50.8118C32.7897 60.5152 26.5694 67.302 16.4902 67.302C13.3829 67.302 10.7411 66.3597 8.57604 64.8509V81.2457C8.57604 82.4685 7.91418 83.1303 6.69144 83.1303H1.8846C0.661852 83.1303 0 82.4685 0 81.2457V36.2061ZM24.2193 50.8118C24.2193 45.4384 21.0166 41.9553 15.7386 41.9553C12.8164 41.9553 10.4606 42.8976 8.57604 45.444V56.6562C10.1802 58.4455 12.4406 59.6738 15.7386 59.6738C21.0166 59.6738 24.2193 56.1851 24.2193 50.8174V50.8118Z" fill="#FF5CA0"/>
<path d="M46.5484 65.3219C46.5484 66.5446 45.8866 67.2065 44.6639 67.2065H39.857C38.6343 67.2065 37.9724 66.5446 37.9724 65.3219V37.1483C37.9724 35.9255 38.6343 35.2637 39.857 35.2637H44.6639C45.8866 35.2637 46.5484 35.9255 46.5484 37.1483V65.3219Z" fill="#FF5CA0"/>
<path d="M69.0682 59.5728C73.1179 59.5728 75.6643 58.064 77.0778 54.3901C77.7396 52.8813 78.0201 52.786 78.3959 52.786C78.6763 52.786 78.9624 52.8813 79.2428 52.9767L83.7636 54.5808C85.177 55.2427 85.2724 55.8036 85.2724 56.185C85.2724 56.5664 85.0817 57.0319 84.8012 57.5984C81.7836 63.9141 77.3582 67.2121 69.0626 67.2121C58.7927 67.2121 51.8208 61.2779 51.8208 50.7219C51.8208 40.1659 58.7927 34.2317 69.0626 34.2317C77.2628 34.2317 81.4078 37.339 84.8012 43.8454C85.0817 44.4119 85.2724 44.883 85.2724 45.2588C85.2724 45.5393 85.2724 46.0104 83.8589 46.6723L79.3381 48.3662C78.9624 48.5569 78.5866 48.6466 78.3005 48.6466C77.9247 48.6466 77.5489 48.5513 77.0778 47.1378C75.855 43.6491 73.2132 41.8598 69.0682 41.8598C63.4144 41.8598 60.3968 45.1579 60.3968 50.7163C60.3968 56.2747 63.4144 59.5728 69.0682 59.5728Z" fill="#FF5CA0"/>
<path d="M99.4125 65.4173C99.4125 66.64 98.7506 67.3019 97.5279 67.3019H92.721C91.4983 67.3019 90.8364 66.64 90.8364 65.4173V2.75447C90.8364 1.53173 91.4983 0.869873 92.721 0.869873H97.5279C98.7506 0.869873 99.4125 1.53173 99.4125 2.75447V45.5337L111 35.3591C112.038 34.3215 112.694 34.3215 113.827 34.3215H121.366C122.779 34.3215 122.779 35.0731 122.779 35.1684C122.779 35.5442 122.499 36.0154 121.837 36.5818L108.925 47.8894L122.964 64.7554C123.531 65.4173 123.811 65.9782 123.811 66.3596C123.811 66.9261 123.245 67.2065 122.022 67.2065H115.897C114.484 67.2065 114.012 66.5447 112.975 65.4173L102.705 53.2628L99.4069 56.185V65.4173H99.4125Z" fill="#FF5CA0"/>
<path d="M151.424 65.1369C148.877 66.6457 145.77 67.2122 142.377 67.2122C132.292 67.2122 127.205 62.5007 127.205 53.1731V36.2117C127.205 34.989 127.866 34.3271 129.089 34.3271H133.896C135.119 34.3271 135.781 34.989 135.781 36.2117V51.4792C135.781 57.2284 137.665 59.3934 143.414 59.3934C147.935 59.3934 151.424 56.9423 151.424 52.7973V36.2117C151.424 34.989 152.086 34.3271 153.308 34.3271H158.115C159.338 34.3271 160 34.989 160 36.2117V63.9142C160 77.7682 154.251 82.7602 144.828 82.7602C137.194 82.7602 131.54 79.0863 128.999 73.713C128.719 73.0511 128.528 72.4902 128.528 72.1088C128.528 71.8284 128.433 71.447 129.661 70.7907L133.997 68.6257C134.468 68.435 134.749 68.3452 135.035 68.3452C135.321 68.3452 135.601 68.1545 136.639 69.9494C138.619 73.6232 140.599 74.9413 144.839 74.9413C149.079 74.9413 151.34 71.6433 151.435 65.1425L151.424 65.1369Z" fill="#FF5CA0"/>
</g>
<defs>
<clipPath id="clip0_38_4003">
<rect width="160" height="82.2604" fill="white" transform="translate(0 0.869873)"/>
</clipPath>
</defs>
</svg>
