<svg fill="none" height="69" viewBox="0 0 69 69" width="69" xmlns="http://www.w3.org/2000/svg" xmlns:xlink="http://www.w3.org/1999/xlink"><filter id="a" color-interpolation-filters="sRGB" filterUnits="userSpaceOnUse" height="232.097" width="232.097" x="-81.5485" y="-81.5485"><feFlood flood-opacity="0" result="BackgroundImageFix"/><feGaussianBlur in="BackgroundImageFix" stdDeviation="40.7742"/><feComposite in2="SourceAlpha" operator="in" result="effect1_backgroundBlur_404_319"/><feBlend in="SourceGraphic" in2="effect1_backgroundBlur_404_319" mode="normal" result="shape"/></filter><g filter="url(#a)"><rect fill="#000" fill-opacity=".5" height="69" rx="18" width="69"/></g><path clip-rule="evenodd" d="m38.3384 21.3333h-7.6768c-1.4394 0-1.9192 1.08-2.399 2.16s-.9596 2.16-2.399 2.16h-2.5909c-1.6122 0-2.4184 0-3.0342.3138-.5417.276-.9821.7164-1.2581 1.2581-.3137.6158-.3137 1.4219-.3137 3.0342v10.4679c0 1.6122 0 2.4184.3137 3.0342.276.5417.7164.9821 1.2581 1.2581.6158.3137 1.422.3137 3.0342.3137h22.4546c1.6123 0 2.4184 0 3.0342-.3137.5417-.276.9821-.7164 1.2581-1.2581.3137-.6158.3137-1.422.3137-3.0342v-10.4679c0-1.6123 0-2.4184-.3137-3.0342-.276-.5417-.7164-.9821-1.2581-1.2581-.6158-.3138-1.4219-.3138-3.0342-.3138h-2.5909c-1.4394 0-1.9192-1.08-2.399-2.16s-.9596-2.16-2.399-2.16zm6.2374 7.2c0 .5302-.4297.96-.9596.96-.53 0-.9596-.4298-.9596-.96s.4296-.96.9596-.96c.5299 0 .9596.4298.9596.96zm-10.0758 14.4c3.9748 0 7.197-3.2235 7.197-7.2 0-3.9764-3.2222-7.2-7.197-7.2s-7.197 3.2236-7.197 7.2c0 3.9765 3.2222 7.2 7.197 7.2zm5.7576-7.2c0 3.1812-2.5778 5.76-5.7576 5.76s-5.7576-2.5788-5.7576-5.76c0-3.1811 2.5778-5.76 5.7576-5.76s5.7576 2.5789 5.7576 5.76zm-18.2323-12.48c-.265 0-.4798.2148-.4798.4798v.9602h3.3585v-.9602c0-.265-.2148-.4798-.4798-.4798z" fill="#fff" fill-rule="evenodd"/></svg>