<svg xmlns='http://www.w3.org/2000/svg'>
    <symbol id='comment' viewBox='0 0 24 24' fill='currentColor'>
      <path d='M10 3H14C18.4183 3 22 6.58172 22 11C22 15.4183 18.4183 19 14 19V22.5C9 20.5 2 17.5 2 11C2 6.58172 5.58172 3 10 3ZM12 17H14C17.3137 17 20 14.3137 20 11C20 7.68629 17.3137 5 14 5H10C6.68629 5 4 7.68629 4 11C4 14.61 6.46208 16.9656 12 19.4798V17Z' />
    </symbol>
    <symbol id='heart' viewBox='0 0 24 24' fill='currentColor'>
      <path d='M12.001 4.52853C14.35 2.42 17.98 2.49 20.2426 4.75736C22.5053 7.02472 22.583 10.637 20.4786 12.993L11.9999 21.485L3.52138 12.993C1.41705 10.637 1.49571 7.01901 3.75736 4.75736C6.02157 2.49315 9.64519 2.41687 12.001 4.52853ZM18.827 6.1701C17.3279 4.66794 14.9076 4.60701 13.337 6.01687L12.0019 7.21524L10.6661 6.01781C9.09098 4.60597 6.67506 4.66808 5.17157 6.17157C3.68183 7.66131 3.60704 10.0473 4.97993 11.6232L11.9999 18.6543L19.0201 11.6232C20.3935 10.0467 20.319 7.66525 18.827 6.1701Z' />
    </symbol>
    <symbol id='heart-fill' viewBox="0 0 24 24" fill="currentColor">
      <path d="M12.001 4.52853C14.35 2.42 17.98 2.49 20.2426 4.75736C22.5053 7.02472 22.583 10.637 20.4786 12.993L11.9999 21.485L3.52138 12.993C1.41705 10.637 1.49571 7.01901 3.75736 4.75736C6.02157 2.49315 9.64519 2.41687 12.001 4.52853Z" />
    </symbol>
    <symbol id='home' viewBox='0 0 24 24' fill='currentColor'>
      <path d="M17.79 22.75H6.21C3.47 22.75 1.25 20.52 1.25 17.78V10.37C1.25 9.00997 2.09 7.29997 3.17 6.45997L8.56 2.25997C10.18 0.999974 12.77 0.939974 14.45 2.11997L20.63 6.44997C21.82 7.27997 22.75 9.05997 22.75 10.51V17.79C22.75 20.52 20.53 22.75 17.79 22.75ZM9.48 3.43997L4.09 7.63997C3.38 8.19997 2.75 9.46997 2.75 10.37V17.78C2.75 19.69 4.3 21.25 6.21 21.25H17.79C19.7 21.25 21.25 19.7 21.25 17.79V10.51C21.25 9.54997 20.56 8.21997 19.77 7.67997L13.59 3.34997C12.45 2.54997 10.57 2.58997 9.48 3.43997Z" fill="white"/>
      <path d="M12 18.75C11.59 18.75 11.25 18.41 11.25 18V15C11.25 14.59 11.59 14.25 12 14.25C12.41 14.25 12.75 14.59 12.75 15V18C12.75 18.41 12.41 18.75 12 18.75Z" fill="white"/>
    </symbol>
    <symbol id='chat' viewBox='0 0 24 24' fill='currentColor'>
      <path d="M12 22.81C11.31 22.81 10.66 22.46 10.2 21.85L8.7 19.85C8.67 19.81 8.55 19.76 8.5 19.75H8C3.83 19.75 1.25 18.62 1.25 13V8C1.25 3.58 3.58 1.25 8 1.25H16C20.42 1.25 22.75 3.58 22.75 8V13C22.75 17.42 20.42 19.75 16 19.75H15.5C15.42 19.75 15.35 19.79 15.3 19.85L13.8 21.85C13.34 22.46 12.69 22.81 12 22.81ZM8 2.75C4.42 2.75 2.75 4.42 2.75 8V13C2.75 17.52 4.3 18.25 8 18.25H8.5C9.01 18.25 9.59 18.54 9.9 18.95L11.4 20.95C11.75 21.41 12.25 21.41 12.6 20.95L14.1 18.95C14.43 18.51 14.95 18.25 15.5 18.25H16C19.58 18.25 21.25 16.58 21.25 13V8C21.25 4.42 19.58 2.75 16 2.75H8Z" fill="white"/>
      <path d="M12 12C11.44 12 11 11.55 11 11C11 10.45 11.45 10 12 10C12.55 10 13 10.45 13 11C13 11.55 12.56 12 12 12Z" fill="white"/>
      <path d="M16 12C15.44 12 15 11.55 15 11C15 10.45 15.45 10 16 10C16.55 10 17 10.45 17 11C17 11.55 16.56 12 16 12Z" fill="white"/>
      <path d="M8 12C7.44 12 7 11.55 7 11C7 10.45 7.45 10 8 10C8.55 10 9 10.45 9 11C9 11.55 8.56 12 8 12Z" fill="white"/>
    </symbol>
    <symbol id='user' viewBox='0 0 24 24' fill='currentColor'>
      <path d="M12 12.75C8.83 12.75 6.25 10.17 6.25 7C6.25 3.83 8.83 1.25 12 1.25C15.17 1.25 17.75 3.83 17.75 7C17.75 10.17 15.17 12.75 12 12.75ZM12 2.75C9.66 2.75 7.75 4.66 7.75 7C7.75 9.34 9.66 11.25 12 11.25C14.34 11.25 16.25 9.34 16.25 7C16.25 4.66 14.34 2.75 12 2.75Z" fill="white"/>
      <path d="M20.5901 22.75C20.1801 22.75 19.8401 22.41 19.8401 22C19.8401 18.55 16.3202 15.75 12.0002 15.75C7.68015 15.75 4.16016 18.55 4.16016 22C4.16016 22.41 3.82016 22.75 3.41016 22.75C3.00016 22.75 2.66016 22.41 2.66016 22C2.66016 17.73 6.85015 14.25 12.0002 14.25C17.1502 14.25 21.3401 17.73 21.3401 22C21.3401 22.41 21.0001 22.75 20.5901 22.75Z" fill="white"/>
    </symbol>
    <symbol  id='add' viewBox="0 0 24 24" fill="currentColor">
      <path d="M11 11V7H13V11H17V13H13V17H11V13H7V11H11ZM12 22C6.47715 22 2 17.5228 2 12C2 6.47715 6.47715 2 12 2C17.5228 2 22 6.47715 22 12C22 17.5228 17.5228 22 12 22ZM12 20C16.4183 20 20 16.4183 20 12C20 7.58172 16.4183 4 12 4C7.58172 4 4 7.58172 4 12C4 16.4183 7.58172 20 12 20Z" />
    </symbol>
    <symbol id='right-arrow' viewBox="0 0 24 24" fill="currentColor">
      <path d="M13.1717 12.0007L8.22192 7.05093L9.63614 5.63672L16.0001 12.0007L9.63614 18.3646L8.22192 16.9504L13.1717 12.0007Z" />
    </symbol>
    <symbol id='down-arrow' viewBox="0 0 24 24" fill="currentColor">
      <path d="M11.9999 13.1714L16.9497 8.22168L18.3639 9.63589L11.9999 15.9999L5.63599 9.63589L7.0502 8.22168L11.9999 13.1714Z"/>
    <symbol id="camera" viewBox="0 0 20 20" fill="currentColor">
      <path d="M7.5 2.5h5l1.666 1.667H17.5c.46 0 .833.373.833.833v11.667c0 .46-.373.833-.833.833h-15a.833.833 0 0 1-.833-.833V5c0-.46.373-.833.833-.833h3.333L7.5 2.5zM10 15.833a5 5 0 1 0 0-10 5 5 0 0 0 0 10zm0-1.666A3.333 3.333 0 1 1 10 7.5a3.333 3.333 0 0 1 0 6.667z" />
    </symbol>
    <symbol id="x" viewBox="0 0 16 16" fill="currentColor">
      <path d="M4.646 4.646a.5.5 0 0 1 .708 0L8 7.293l2.646-2.647a.5.5 0 0 1 .708.708L8.707 8l2.647 2.646a.5.5 0 0 1-.708.708L8 8.707l-2.646 2.647a.5.5 0 0 1-.708-.708L7.293 8 4.646 5.354a.5.5 0 0 1 0-.708"/>
    </symbol>
    <symbol id="dash-circle-fill" fill="currentColor" class="bi bi-dash-circle-fill">
      <path d="M16 8A8 8 0 1 1 0 8a8 8 0 0 1 16 0M4.5 7.5a.5.5 0 0 0 0 1h7a.5.5 0 0 0 0-1z"/>
    </symbol>
    <symbol id='notification' viewBox="0 0 24 24" fill="currentColor">
      <path d="M12.02 20.5299C9.69 20.5299 7.36 20.1599 5.15 19.4199C4.31 19.1299 3.67 18.5399 3.39 17.7699C3.1 16.9999 3.2 16.1499 3.66 15.3899L4.81 13.4799C5.05 13.0799 5.27 12.2799 5.27 11.8099V8.91992C5.27 5.19992 8.3 2.16992 12.02 2.16992C15.74 2.16992 18.77 5.19992 18.77 8.91992V11.8099C18.77 12.2699 18.99 13.0799 19.23 13.4899L20.37 15.3899C20.8 16.1099 20.88 16.9799 20.59 17.7699C20.3 18.5599 19.67 19.1599 18.88 19.4199C16.68 20.1599 14.35 20.5299 12.02 20.5299ZM12.02 3.66992C9.13 3.66992 6.77 6.01992 6.77 8.91992V11.8099C6.77 12.5399 6.47 13.6199 6.1 14.2499L4.95 16.1599C4.73 16.5299 4.67 16.9199 4.8 17.2499C4.92 17.5899 5.22 17.8499 5.63 17.9899C9.81 19.3899 14.24 19.3899 18.42 17.9899C18.78 17.8699 19.06 17.5999 19.19 17.2399C19.32 16.8799 19.29 16.4899 19.09 16.1599L17.94 14.2499C17.56 13.5999 17.27 12.5299 17.27 11.7999V8.91992C17.27 6.01992 14.92 3.66992 12.02 3.66992Z" fill="white"/>
      <path d="M13.88 3.93993C13.81 3.93993 13.74 3.92993 13.67 3.90993C13.38 3.82993 13.1 3.76993 12.83 3.72993C11.98 3.61993 11.16 3.67993 10.39 3.90993C10.11 3.99993 9.81 3.90993 9.62 3.69993C9.43 3.48993 9.37 3.18993 9.48 2.91993C9.89 1.86993 10.89 1.17993 12.03 1.17993C13.17 1.17993 14.17 1.85993 14.58 2.91993C14.68 3.18993 14.63 3.48993 14.44 3.69993C14.29 3.85993 14.08 3.93993 13.88 3.93993Z" fill="white"/>
      <path d="M12.02 22.8101C11.03 22.8101 10.07 22.4101 9.37 21.7101C8.67 21.0101 8.27 20.0501 8.27 19.0601H9.77C9.77 19.6501 10.01 20.2301 10.43 20.6501C10.85 21.0701 11.43 21.3101 12.02 21.3101C13.26 21.3101 14.27 20.3001 14.27 19.0601H15.77C15.77 21.1301 14.09 22.8101 12.02 22.8101Z" fill="white"/>
    </symbol>
    <symbol id='back' viewBox="0 0 24 24" fill="currentColor">
      <path d="M10.8284 12.0007L15.7782 16.9504L14.364 18.3646L8 12.0007L14.364 5.63672L15.7782 7.05093L10.8284 12.0007Z" />
    </symbol>
    <symbol id='search' viewBox="0 0 24 24" fill="currentColor">
      <path d="M18.031 16.6168L22.3137 20.8995L20.8995 22.3137L16.6168 18.031C15.0769 19.263 13.124 20 11 20C6.032 20 2 15.968 2 11C2 6.032 6.032 2 11 2C15.968 2 20 6.032 20 11C20 13.124 19.263 15.0769 18.031 16.6168ZM16.0247 15.8748C17.2475 14.6146 18 12.8956 18 11C18 7.1325 14.8675 4 11 4C7.1325 4 4 7.1325 4 11C4 14.8675 7.1325 18 11 18C12.8956 18 14.6146 17.2475 15.8748 16.0247L16.0247 15.8748Z" />
    </symbol>
    <symbol id='moon-line' viewBox="0 0 24 24" fill="currentColor">
      <path d="M10 7C10 10.866 13.134 14 17 14C18.9584 14 20.729 13.1957 21.9995 11.8995C22 11.933 22 11.9665 22 12C22 17.5228 17.5228 22 12 22C6.47715 22 2 17.5228 2 12C2 6.47715 6.47715 2 12 2C12.0335 2 12.067 2 12.1005 2.00049C10.8043 3.27098 10 5.04157 10 7ZM4 12C4 16.4183 7.58172 20 12 20C15.0583 20 17.7158 18.2839 19.062 15.7621C18.3945 15.9187 17.7035 16 17 16C12.0294 16 8 11.9706 8 7C8 6.29648 8.08133 5.60547 8.2379 4.938C5.71611 6.28423 4 8.9417 4 12Z" />
    </symbol>
    <symbol id='moon-fill' viewBox="0 0 24 24" fill="currentColor">
      <path d="M11.3807 2.01886C9.91573 3.38768 9 5.3369 9 7.49999C9 11.6421 12.3579 15 16.5 15C18.6631 15 20.6123 14.0843 21.9811 12.6193C21.6613 17.8537 17.3149 22 12 22C6.47715 22 2 17.5228 2 12C2 6.68514 6.14629 2.33869 11.3807 2.01886Z" />
    <symbol id='subtract-circle' viewBox="0 0 24 24" fill="currentColor">
      <path d="M12 22C6.47715 22 2 17.5228 2 12C2 6.47715 6.47715 2 12 2C17.5228 2 22 6.47715 22 12C22 17.5228 17.5228 22 12 22ZM12 20C16.4183 20 20 16.4183 20 12C20 7.58172 16.4183 4 12 4C7.58172 4 4 7.58172 4 12C4 16.4183 7.58172 20 12 20ZM7 11H17V13H7V11Z"/>
    </symbol>
    <symbol id='pencil-fill' fill="currentColor" viewBox="0 0 16 16">
      <path d="M12.854.146a.5.5 0 0 0-.707 0L10.5 1.793 14.207 5.5l1.647-1.646a.5.5 0 0 0 0-.708zm.646 6.061L9.793 2.5 3.293 9H3.5a.5.5 0 0 1 .5.5v.5h.5a.5.5 0 0 1 .5.5v.5h.5a.5.5 0 0 1 .5.5v.5h.5a.5.5 0 0 1 .5.5v.207zm-7.468 7.468A.5.5 0 0 1 6 13.5V13h-.5a.5.5 0 0 1-.5-.5V12h-.5a.5.5 0 0 1-.5-.5V11h-.5a.5.5 0 0 1-.5-.5V10h-.5a.5.5 0 0 1-.175-.032l-.179.178a.5.5 0 0 0-.11.168l-2 5a.5.5 0 0 0 .65.65l5-2a.5.5 0 0 0 .168-.11z"/>
    </symbol>
    <symbol id='kakao' width="30" height="30" viewBox="0 0 22 20" fill="none" >
      <path d="M11.2496 0.526855C5.47831 0.526855 0.773438 4.22802 0.773438 8.7447C0.773438 11.4422 2.46719 13.9828 5.29012 15.5197C4.81963 17.3076 3.00041 19.1895 2.96904 19.2209C2.93768 19.2522 2.90631 19.3463 2.93768 19.3777C2.96904 19.4404 3.03178 19.4718 3.09451 19.4718C5.9488 19.3777 8.95992 17.1821 9.39904 16.8371C10.0264 16.9312 10.6223 16.9625 11.2496 16.9625C17.0209 16.9625 21.7258 13.2614 21.7258 8.7447C21.7258 4.22802 17.0209 0.526855 11.2496 0.526855Z" fill="#47292B"/>
    </symbol>
    <symbol id='close' viewBox="0 0 24 24" fill="currentColor"><path d="M12 22C6.47715 22 2 17.5228 2 12C2 6.47715 6.47715 2 12 2C17.5228 2 22 6.47715 22 12C22 17.5228 17.5228 22 12 22ZM12 10.5858L9.17157 7.75736L7.75736 9.17157L10.5858 12L7.75736 14.8284L9.17157 16.2426L12 13.4142L14.8284 16.2426L16.2426 14.8284L13.4142 12L16.2426 9.17157L14.8284 7.75736L12 10.5858Z">
      </path>
    </symbol>
    <symbol id='camera' viewBox="0 0 24 24" fill="currentColor"><path d="M9 3H15L17 5H21C21.5523 5 22 5.44772 22 6V20C22 20.5523 21.5523 21 21 21H3C2.44772 21 2 20.5523 2 20V6C2 5.44772 2.44772 5 3 5H7L9 3ZM12 19C15.3137 19 18 16.3137 18 13C18 9.68629 15.3137 7 12 7C8.68629 7 6 9.68629 6 13C6 16.3137 8.68629 19 12 19ZM12 17C9.79086 17 8 15.2091 8 13C8 10.7909 9.79086 9 12 9C14.2091 9 16 10.7909 16 13C16 15.2091 14.2091 17 12 17Z">
      </path>
    </symbol>
</svg>

