<svg xmlns='http://www.w3.org/2000/svg'>
    <symbol id='heart' viewBox='0 0 24 24' fill='currentColor'>
      <path d='M10 3H14C18.4183 3 22 6.58172 22 11C22 15.4183 18.4183 19 14 19V22.5C9 20.5 2 17.5 2 11C2 6.58172 5.58172 3 10 3ZM12 17H14C17.3137 17 20 14.3137 20 11C20 7.68629 17.3137 5 14 5H10C6.68629 5 4 7.68629 4 11C4 14.61 6.46208 16.9656 12 19.4798V17Z' />
    </symbol>
    <symbol id='comment' viewBox='0 0 24 24' fill='currentColor'>
      <path d='M12.001 4.52853C14.35 2.42 17.98 2.49 20.2426 4.75736C22.5053 7.02472 22.583 10.637 20.4786 12.993L11.9999 21.485L3.52138 12.993C1.41705 10.637 1.49571 7.01901 3.75736 4.75736C6.02157 2.49315 9.64519 2.41687 12.001 4.52853ZM18.827 6.1701C17.3279 4.66794 14.9076 4.60701 13.337 6.01687L12.0019 7.21524L10.6661 6.01781C9.09098 4.60597 6.67506 4.66808 5.17157 6.17157C3.68183 7.66131 3.60704 10.0473 4.97993 11.6232L11.9999 18.6543L19.0201 11.6232C20.3935 10.0467 20.319 7.66525 18.827 6.1701Z' />
    </symbol>
    <symbol id='home' viewBox='0 0 24 24' fill='currentColor'>
      <path d='M21 20C21 20.5523 20.5523 21 20 21H4C3.44772 21 3 20.5523 3 20V9.48907C3 9.18048 3.14247 8.88917 3.38606 8.69972L11.3861 2.47749C11.7472 2.19663 12.2528 2.19663 12.6139 2.47749L20.6139 8.69972C20.8575 8.88917 21 9.18048 21 9.48907V20ZM19 19V9.97815L12 4.53371L5 9.97815V19H19Z' />
    </symbol>
    <symbol id='chat' viewBox='0 0 24 24' fill='currentColor'>
      <path d='M5.45455 15L1 18.5V3C1 2.44772 1.44772 2 2 2H17C17.5523 2 18 2.44772 18 3V15H5.45455ZM4.76282 13H16V4H3V14.3851L4.76282 13ZM8 17H18.2372L20 18.3851V8H21C21.5523 8 22 8.44772 22 9V22.5L17.5455 19H9C8.44772 19 8 18.5523 8 18V17Z' />
    </symbol>
    <symbol id='user' viewBox='0 0 24 24' fill='currentColor'>
      <path d='M4 22C4 17.5817 7.58172 14 12 14C16.4183 14 20 17.5817 20 22H18C18 18.6863 15.3137 16 12 16C8.68629 16 6 18.6863 6 22H4ZM12 13C8.685 13 6 10.315 6 7C6 3.685 8.685 1 12 1C15.315 1 18 3.685 18 7C18 10.315 15.315 13 12 13ZM12 11C14.21 11 16 9.21 16 7C16 4.79 14.21 3 12 3C9.79 3 8 4.79 8 7C8 9.21 9.79 11 12 11Z' />
    </symbol>
    <symbol  id='add' viewBox="0 0 24 24" fill="currentColor">
      <path d="M11 11V7H13V11H17V13H13V17H11V13H7V11H11ZM12 22C6.47715 22 2 17.5228 2 12C2 6.47715 6.47715 2 12 2C17.5228 2 22 6.47715 22 12C22 17.5228 17.5228 22 12 22ZM12 20C16.4183 20 20 16.4183 20 12C20 7.58172 16.4183 4 12 4C7.58172 4 4 7.58172 4 12C4 16.4183 7.58172 20 12 20Z" />
    </symbol>
    <symbol id='right-arrow' viewBox="0 0 24 24" fill="currentColor">
      <path d="M13.1717 12.0007L8.22192 7.05093L9.63614 5.63672L16.0001 12.0007L9.63614 18.3646L8.22192 16.9504L13.1717 12.0007Z" />
    </symbol>
    <symbol id='notification' viewBox="0 0 24 24" fill="currentColor">
      <path d="M5 18H19V11.0314C19 7.14806 15.866 4 12 4C8.13401 4 5 7.14806 5 11.0314V18ZM12 2C16.9706 2 21 6.04348 21 11.0314V20H3V11.0314C3 6.04348 7.02944 2 12 2ZM9.5 21H14.5C14.5 22.3807 13.3807 23.5 12 23.5C10.6193 23.5 9.5 22.3807 9.5 21Z" />
    </symbol>
    <symbol id='back' viewBox="0 0 24 24" fill="currentColor">
      <path d="M10.8284 12.0007L15.7782 16.9504L14.364 18.3646L8 12.0007L14.364 5.63672L15.7782 7.05093L10.8284 12.0007Z" />
    </symbol>
    <symbol id='search' viewBox="0 0 24 24" fill="currentColor">
      <path d="M18.031 16.6168L22.3137 20.8995L20.8995 22.3137L16.6168 18.031C15.0769 19.263 13.124 20 11 20C6.032 20 2 15.968 2 11C2 6.032 6.032 2 11 2C15.968 2 20 6.032 20 11C20 13.124 19.263 15.0769 18.031 16.6168ZM16.0247 15.8748C17.2475 14.6146 18 12.8956 18 11C18 7.1325 14.8675 4 11 4C7.1325 4 4 7.1325 4 11C4 14.8675 7.1325 18 11 18C12.8956 18 14.6146 17.2475 15.8748 16.0247L16.0247 15.8748Z" />
    </symbol>
    <symbol id='moon-line' viewBox="0 0 24 24" fill="currentColor">
      <path d="M10 7C10 10.866 13.134 14 17 14C18.9584 14 20.729 13.1957 21.9995 11.8995C22 11.933 22 11.9665 22 12C22 17.5228 17.5228 22 12 22C6.47715 22 2 17.5228 2 12C2 6.47715 6.47715 2 12 2C12.0335 2 12.067 2 12.1005 2.00049C10.8043 3.27098 10 5.04157 10 7ZM4 12C4 16.4183 7.58172 20 12 20C15.0583 20 17.7158 18.2839 19.062 15.7621C18.3945 15.9187 17.7035 16 17 16C12.0294 16 8 11.9706 8 7C8 6.29648 8.08133 5.60547 8.2379 4.938C5.71611 6.28423 4 8.9417 4 12Z" />
    </symbol>
    <symbol id='moon-fill' viewBox="0 0 24 24" fill="currentColor">
      <path d="M11.3807 2.01886C9.91573 3.38768 9 5.3369 9 7.49999C9 11.6421 12.3579 15 16.5 15C18.6631 15 20.6123 14.0843 21.9811 12.6193C21.6613 17.8537 17.3149 22 12 22C6.47715 22 2 17.5228 2 12C2 6.68514 6.14629 2.33869 11.3807 2.01886Z" />
    </symbol>
    <symbol id='pencil-fill' fill="currentColor" viewBox="0 0 16 16">
      <path d="M12.854.146a.5.5 0 0 0-.707 0L10.5 1.793 14.207 5.5l1.647-1.646a.5.5 0 0 0 0-.708zm.646 6.061L9.793 2.5 3.293 9H3.5a.5.5 0 0 1 .5.5v.5h.5a.5.5 0 0 1 .5.5v.5h.5a.5.5 0 0 1 .5.5v.5h.5a.5.5 0 0 1 .5.5v.207zm-7.468 7.468A.5.5 0 0 1 6 13.5V13h-.5a.5.5 0 0 1-.5-.5V12h-.5a.5.5 0 0 1-.5-.5V11h-.5a.5.5 0 0 1-.5-.5V10h-.5a.5.5 0 0 1-.175-.032l-.179.178a.5.5 0 0 0-.11.168l-2 5a.5.5 0 0 0 .65.65l5-2a.5.5 0 0 0 .168-.11z"/>
    </symbol>
</svg>

