<svg xmlns='http://www.w3.org/2000/svg'>
    <symbol id='comment' viewBox='0 0 12 12' fill='currentColor'>
      <path d="M8 11.16C7.83 11.16 7.66 11.11 7.515 11.015L5.38499 9.59497H3.5C1.78 9.59497 0.625 8.43997 0.625 6.71997V3.71997C0.625 1.99997 1.78 0.844971 3.5 0.844971H8.5C10.22 0.844971 11.375 1.99997 11.375 3.71997V6.71997C11.375 8.30997 10.385 9.41998 8.875 9.57498V10.285C8.875 10.61 8.69999 10.905 8.41499 11.055C8.28499 11.125 8.14 11.16 8 11.16ZM3.5 1.58997C2.21 1.58997 1.375 2.42497 1.375 3.71497V6.71497C1.375 8.00497 2.21 8.83997 3.5 8.83997H5.5C5.575 8.83997 5.64501 8.85997 5.71001 8.90497L7.935 10.385C7.99 10.42 8.04 10.405 8.065 10.39C8.09 10.375 8.13 10.345 8.13 10.28V9.21497C8.13 9.00997 8.3 8.83997 8.505 8.83997C9.795 8.83997 10.63 8.00497 10.63 6.71497V3.71497C10.63 2.42497 9.795 1.58997 8.505 1.58997H3.5Z" fill="#A2A2A2"/>
    </symbol>

<symbol width="12" height="12" viewBox="0 0 12 12" fill="none" id='heart'>
<path d="M6 10.825C5.845 10.825 5.695 10.805 5.57 10.76C3.66 10.105 0.625 7.78005 0.625 4.34505C0.625 2.59505 2.04 1.17505 3.78 1.17505C4.625 1.17505 5.415 1.50505 6 2.09505C6.585 1.50505 7.375 1.17505 8.22 1.17505C9.96 1.17505 11.375 2.60005 11.375 4.34505C11.375 7.78505 8.34 10.105 6.43 10.76C6.305 10.805 6.155 10.825 6 10.825ZM3.78 1.92505C2.455 1.92505 1.375 3.01005 1.375 4.34505C1.375 7.76005 4.66 9.66005 5.815 10.055C5.905 10.085 6.1 10.085 6.19 10.055C7.34 9.66005 10.63 7.76505 10.63 4.34505C10.63 3.01005 9.55 1.92505 8.225 1.92505C7.465 1.92505 6.76 2.28005 6.305 2.89505C6.165 3.08505 5.845 3.08505 5.705 2.89505C5.24 2.27505 4.54 1.92505 3.78 1.92505Z" fill="#868686"/>
</symbol>

    <symbol id='home' viewBox='0 0 24 24' fill='currentColor'>
      <path d="M17.79 22.75H6.21C3.47 22.75 1.25 20.52 1.25 17.78V10.37C1.25 9.00997 2.09 7.29997 3.17 6.45997L8.56 2.25997C10.18 0.999974 12.77 0.939974 14.45 2.11997L20.63 6.44997C21.82 7.27997 22.75 9.05997 22.75 10.51V17.79C22.75 20.52 20.53 22.75 17.79 22.75ZM9.48 3.43997L4.09 7.63997C3.38 8.19997 2.75 9.46997 2.75 10.37V17.78C2.75 19.69 4.3 21.25 6.21 21.25H17.79C19.7 21.25 21.25 19.7 21.25 17.79V10.51C21.25 9.54997 20.56 8.21997 19.77 7.67997L13.59 3.34997C12.45 2.54997 10.57 2.58997 9.48 3.43997Z" fill="white"/>
      <path d="M12 18.75C11.59 18.75 11.25 18.41 11.25 18V15C11.25 14.59 11.59 14.25 12 14.25C12.41 14.25 12.75 14.59 12.75 15V18C12.75 18.41 12.41 18.75 12 18.75Z" fill="white"/>
    </symbol>
    <symbol id='chat' viewBox='0 0 24 24' fill='currentColor'>
      <path d="M12 22.81C11.31 22.81 10.66 22.46 10.2 21.85L8.7 19.85C8.67 19.81 8.55 19.76 8.5 19.75H8C3.83 19.75 1.25 18.62 1.25 13V8C1.25 3.58 3.58 1.25 8 1.25H16C20.42 1.25 22.75 3.58 22.75 8V13C22.75 17.42 20.42 19.75 16 19.75H15.5C15.42 19.75 15.35 19.79 15.3 19.85L13.8 21.85C13.34 22.46 12.69 22.81 12 22.81ZM8 2.75C4.42 2.75 2.75 4.42 2.75 8V13C2.75 17.52 4.3 18.25 8 18.25H8.5C9.01 18.25 9.59 18.54 9.9 18.95L11.4 20.95C11.75 21.41 12.25 21.41 12.6 20.95L14.1 18.95C14.43 18.51 14.95 18.25 15.5 18.25H16C19.58 18.25 21.25 16.58 21.25 13V8C21.25 4.42 19.58 2.75 16 2.75H8Z" fill="white"/>
      <path d="M12 12C11.44 12 11 11.55 11 11C11 10.45 11.45 10 12 10C12.55 10 13 10.45 13 11C13 11.55 12.56 12 12 12Z" fill="white"/>
      <path d="M16 12C15.44 12 15 11.55 15 11C15 10.45 15.45 10 16 10C16.55 10 17 10.45 17 11C17 11.55 16.56 12 16 12Z" fill="white"/>
      <path d="M8 12C7.44 12 7 11.55 7 11C7 10.45 7.45 10 8 10C8.55 10 9 10.45 9 11C9 11.55 8.56 12 8 12Z" fill="white"/>
    </symbol>
    <symbol id='user' viewBox='0 0 24 24' fill='currentColor'>
      <path d="M12 12.75C8.83 12.75 6.25 10.17 6.25 7C6.25 3.83 8.83 1.25 12 1.25C15.17 1.25 17.75 3.83 17.75 7C17.75 10.17 15.17 12.75 12 12.75ZM12 2.75C9.66 2.75 7.75 4.66 7.75 7C7.75 9.34 9.66 11.25 12 11.25C14.34 11.25 16.25 9.34 16.25 7C16.25 4.66 14.34 2.75 12 2.75Z" fill="white"/>
      <path d="M20.5901 22.75C20.1801 22.75 19.8401 22.41 19.8401 22C19.8401 18.55 16.3202 15.75 12.0002 15.75C7.68015 15.75 4.16016 18.55 4.16016 22C4.16016 22.41 3.82016 22.75 3.41016 22.75C3.00016 22.75 2.66016 22.41 2.66016 22C2.66016 17.73 6.85015 14.25 12.0002 14.25C17.1502 14.25 21.3401 17.73 21.3401 22C21.3401 22.41 21.0001 22.75 20.5901 22.75Z" fill="white"/>
    </symbol>
    <symbol  id='add' viewBox="0 0 24 24" fill="currentColor">
      <path d="M11 11V7H13V11H17V13H13V17H11V13H7V11H11ZM12 22C6.47715 22 2 17.5228 2 12C2 6.47715 6.47715 2 12 2C17.5228 2 22 6.47715 22 12C22 17.5228 17.5228 22 12 22ZM12 20C16.4183 20 20 16.4183 20 12C20 7.58172 16.4183 4 12 4C7.58172 4 4 7.58172 4 12C4 16.4183 7.58172 20 12 20Z" />
    </symbol>
    <symbol id='right-arrow' viewBox="0 0 24 24" fill="currentColor">
      <path d="M13.1717 12.0007L8.22192 7.05093L9.63614 5.63672L16.0001 12.0007L9.63614 18.3646L8.22192 16.9504L13.1717 12.0007Z" />
    </symbol>
    <symbol id='down-arrow' viewBox="0 0 24 24" fill="currentColor">
      <path d="M11.9999 13.1714L16.9497 8.22168L18.3639 9.63589L11.9999 15.9999L5.63599 9.63589L7.0502 8.22168L11.9999 13.1714Z"/>

    <symbol id="x" viewBox="0 0 16 16" fill="currentColor">
      <path d="M4.646 4.646a.5.5 0 0 1 .708 0L8 7.293l2.646-2.647a.5.5 0 0 1 .708.708L8.707 8l2.647 2.646a.5.5 0 0 1-.708.708L8 8.707l-2.646 2.647a.5.5 0 0 1-.708-.708L7.293 8 4.646 5.354a.5.5 0 0 1 0-.708"/>
    </symbol>
    <symbol id="dash-circle-fill" fill="currentColor" class="bi bi-dash-circle-fill">
      <path d="M16 8A8 8 0 1 1 0 8a8 8 0 0 1 16 0M4.5 7.5a.5.5 0 0 0 0 1h7a.5.5 0 0 0 0-1z"/>
    </symbol>
    <symbol id='notification' viewBox="0 0 24 24" fill="currentColor">
      <path d="M12.02 20.5299C9.69 20.5299 7.36 20.1599 5.15 19.4199C4.31 19.1299 3.67 18.5399 3.39 17.7699C3.1 16.9999 3.2 16.1499 3.66 15.3899L4.81 13.4799C5.05 13.0799 5.27 12.2799 5.27 11.8099V8.91992C5.27 5.19992 8.3 2.16992 12.02 2.16992C15.74 2.16992 18.77 5.19992 18.77 8.91992V11.8099C18.77 12.2699 18.99 13.0799 19.23 13.4899L20.37 15.3899C20.8 16.1099 20.88 16.9799 20.59 17.7699C20.3 18.5599 19.67 19.1599 18.88 19.4199C16.68 20.1599 14.35 20.5299 12.02 20.5299ZM12.02 3.66992C9.13 3.66992 6.77 6.01992 6.77 8.91992V11.8099C6.77 12.5399 6.47 13.6199 6.1 14.2499L4.95 16.1599C4.73 16.5299 4.67 16.9199 4.8 17.2499C4.92 17.5899 5.22 17.8499 5.63 17.9899C9.81 19.3899 14.24 19.3899 18.42 17.9899C18.78 17.8699 19.06 17.5999 19.19 17.2399C19.32 16.8799 19.29 16.4899 19.09 16.1599L17.94 14.2499C17.56 13.5999 17.27 12.5299 17.27 11.7999V8.91992C17.27 6.01992 14.92 3.66992 12.02 3.66992Z" fill="white"/>
      <path d="M13.88 3.93993C13.81 3.93993 13.74 3.92993 13.67 3.90993C13.38 3.82993 13.1 3.76993 12.83 3.72993C11.98 3.61993 11.16 3.67993 10.39 3.90993C10.11 3.99993 9.81 3.90993 9.62 3.69993C9.43 3.48993 9.37 3.18993 9.48 2.91993C9.89 1.86993 10.89 1.17993 12.03 1.17993C13.17 1.17993 14.17 1.85993 14.58 2.91993C14.68 3.18993 14.63 3.48993 14.44 3.69993C14.29 3.85993 14.08 3.93993 13.88 3.93993Z" fill="white"/>
      <path d="M12.02 22.8101C11.03 22.8101 10.07 22.4101 9.37 21.7101C8.67 21.0101 8.27 20.0501 8.27 19.0601H9.77C9.77 19.6501 10.01 20.2301 10.43 20.6501C10.85 21.0701 11.43 21.3101 12.02 21.3101C13.26 21.3101 14.27 20.3001 14.27 19.0601H15.77C15.77 21.1301 14.09 22.8101 12.02 22.8101Z" fill="white"/>
    </symbol>
    <symbol id='back' viewBox="0 0 24 24" fill="currentColor">
      <path d="M10.8284 12.0007L15.7782 16.9504L14.364 18.3646L8 12.0007L14.364 5.63672L15.7782 7.05093L10.8284 12.0007Z" />
    </symbol>
    <symbol id='search' viewBox="0 0 24 24" fill="currentColor">
      <path d="M18.031 16.6168L22.3137 20.8995L20.8995 22.3137L16.6168 18.031C15.0769 19.263 13.124 20 11 20C6.032 20 2 15.968 2 11C2 6.032 6.032 2 11 2C15.968 2 20 6.032 20 11C20 13.124 19.263 15.0769 18.031 16.6168ZM16.0247 15.8748C17.2475 14.6146 18 12.8956 18 11C18 7.1325 14.8675 4 11 4C7.1325 4 4 7.1325 4 11C4 14.8675 7.1325 18 11 18C12.8956 18 14.6146 17.2475 15.8748 16.0247L16.0247 15.8748Z" />
    </symbol>
    <symbol id='moon-line' viewBox="0 0 24 24" fill="currentColor">
      <path d="M10 7C10 10.866 13.134 14 17 14C18.9584 14 20.729 13.1957 21.9995 11.8995C22 11.933 22 11.9665 22 12C22 17.5228 17.5228 22 12 22C6.47715 22 2 17.5228 2 12C2 6.47715 6.47715 2 12 2C12.0335 2 12.067 2 12.1005 2.00049C10.8043 3.27098 10 5.04157 10 7ZM4 12C4 16.4183 7.58172 20 12 20C15.0583 20 17.7158 18.2839 19.062 15.7621C18.3945 15.9187 17.7035 16 17 16C12.0294 16 8 11.9706 8 7C8 6.29648 8.08133 5.60547 8.2379 4.938C5.71611 6.28423 4 8.9417 4 12Z" />
    </symbol>
    <symbol id='moon-fill' viewBox="0 0 24 24" fill="currentColor">
      <path d="M11.3807 2.01886C9.91573 3.38768 9 5.3369 9 7.49999C9 11.6421 12.3579 15 16.5 15C18.6631 15 20.6123 14.0843 21.9811 12.6193C21.6613 17.8537 17.3149 22 12 22C6.47715 22 2 17.5228 2 12C2 6.68514 6.14629 2.33869 11.3807 2.01886Z" />
    <symbol id='subtract-circle' viewBox="0 0 24 24" fill="currentColor">
      <path d="M11.9334 20.9583C7.0001 20.9583 2.9751 16.9416 2.9751 12C2.9751 7.05829 7.0001 3.04163 11.9334 3.04163C16.8668 3.04163 20.8918 7.05829 20.8918 12C20.8918 16.9416 16.8751 20.9583 11.9334 20.9583ZM11.9334 4.29163C7.68343 4.29163 4.2251 7.74996 4.2251 12C4.2251 16.25 7.68343 19.7083 11.9334 19.7083C16.1834 19.7083 19.6418 16.25 19.6418 12C19.6418 7.74996 16.1834 4.29163 11.9334 4.29163Z" fill="currentColor"/>
      <path d="M15.2668 12.625H8.6001C8.25843 12.625 7.9751 12.3417 7.9751 12C7.9751 11.6583 8.25843 11.375 8.6001 11.375H15.2668C15.6084 11.375 15.8918 11.6583 15.8918 12C15.8918 12.3417 15.6168 12.625 15.2668 12.625Z" fill="currentColor"/>    </symbol>
    <symbol id='add-circle' viewBox="0 0 24 24" fill="currentColor">
      <path d="M12.0001 20.9584C7.05841 20.9584 3.04175 16.9417 3.04175 12.0001C3.04175 7.05841 7.05841 3.04175 12.0001 3.04175C16.9417 3.04175 20.9584 7.05841 20.9584 12.0001C20.9584 16.9417 16.9417 20.9584 12.0001 20.9584ZM12.0001 4.29175C7.75008 4.29175 4.29175 7.75008 4.29175 12.0001C4.29175 16.2501 7.75008 19.7084 12.0001 19.7084C16.2501 19.7084 19.7084 16.2501 19.7084 12.0001C19.7084 7.75008 16.2501 4.29175 12.0001 4.29175Z" fill="white"/>
      <path d="M15.3334 12.625H8.66675C8.32508 12.625 8.04175 12.3417 8.04175 12C8.04175 11.6583 8.32508 11.375 8.66675 11.375H15.3334C15.6751 11.375 15.9584 11.6583 15.9584 12C15.9584 12.3417 15.6751 12.625 15.3334 12.625Z" fill="white"/>
      <path d="M12 15.9584C11.6583 15.9584 11.375 15.6751 11.375 15.3334V8.66675C11.375 8.32508 11.6583 8.04175 12 8.04175C12.3417 8.04175 12.625 8.32508 12.625 8.66675V15.3334C12.625 15.6751 12.3417 15.9584 12 15.9584Z" fill="white"/>
    </symbol>
    <symbol id="add-box" viewBox="0 0 24 24" fill="currentColor">
      <path d="M16 12.75H8C7.59 12.75 7.25 12.41 7.25 12C7.25 11.59 7.59 11.25 8 11.25H16C16.41 11.25 16.75 11.59 16.75 12C16.75 12.41 16.41 12.75 16 12.75Z" fill="white"/>
      <path d="M12 16.75C11.59 16.75 11.25 16.41 11.25 16V8C11.25 7.59 11.59 7.25 12 7.25C12.41 7.25 12.75 7.59 12.75 8V16C12.75 16.41 12.41 16.75 12 16.75Z" fill="white"/>
      <path d="M15 22.75H9C3.57 22.75 1.25 20.43 1.25 15V9C1.25 3.57 3.57 1.25 9 1.25H15C20.43 1.25 22.75 3.57 22.75 9V15C22.75 20.43 20.43 22.75 15 22.75ZM9 2.75C4.39 2.75 2.75 4.39 2.75 9V15C2.75 19.61 4.39 21.25 9 21.25H15C19.61 21.25 21.25 19.61 21.25 15V9C21.25 4.39 19.61 2.75 15 2.75H9Z" fill="white"/>
    </symbol>
    <symbol id='kakao' width="30" height="30" viewBox="0 0 22 20" fill="none" >
      <path d="M11.2496 0.526855C5.47831 0.526855 0.773438 4.22802 0.773438 8.7447C0.773438 11.4422 2.46719 13.9828 5.29012 15.5197C4.81963 17.3076 3.00041 19.1895 2.96904 19.2209C2.93768 19.2522 2.90631 19.3463 2.93768 19.3777C2.96904 19.4404 3.03178 19.4718 3.09451 19.4718C5.9488 19.3777 8.95992 17.1821 9.39904 16.8371C10.0264 16.9312 10.6223 16.9625 11.2496 16.9625C17.0209 16.9625 21.7258 13.2614 21.7258 8.7447C21.7258 4.22802 17.0209 0.526855 11.2496 0.526855Z" fill="#47292B"/>
    </symbol>
    <symbol id='close' viewBox="0 0 24 24" fill="currentColor"><path d="M12 22C6.47715 22 2 17.5228 2 12C2 6.47715 6.47715 2 12 2C17.5228 2 22 6.47715 22 12C22 17.5228 17.5228 22 12 22ZM12 10.5858L9.17157 7.75736L7.75736 9.17157L10.5858 12L7.75736 14.8284L9.17157 16.2426L12 13.4142L14.8284 16.2426L16.2426 14.8284L13.4142 12L16.2426 9.17157L14.8284 7.75736L12 10.5858Z">
      </path>
    </symbol>
    
    <symbol width="32" height="32" viewBox="0 0 32 32" fill="none" id='camera'>
    <circle cx="15.3337" cy="16.6667" r="12.6667" fill="#2D3033"/>
    <path d="M15.9998 29.661C23.4598 29.661 29.6604 23.4604 29.6604 16.0004C29.6604 8.52727 23.4461 2.33984 15.9861 2.33984C8.51356 2.33984 2.33984 8.52727 2.33984 16.0004C2.33984 23.4604 8.5267 29.661 15.9998 29.661ZM10.1067 22.0404C8.67413 22.0404 7.9507 21.3307 7.9507 19.9376V12.7867C7.9507 11.3804 8.67413 10.6707 10.1067 10.6707H11.6473C12.1827 10.6707 12.3433 10.5501 12.6518 10.2284L13.2004 9.61242C13.549 9.23756 13.8976 9.03642 14.5936 9.03642H17.3256C18.0221 9.03642 18.3701 9.23756 18.705 9.61242L19.2541 10.2284C19.5627 10.577 19.7227 10.6707 20.2587 10.6707H21.8661C23.2718 10.6707 24.009 11.3804 24.009 12.7867V19.9387C24.009 21.3313 23.2718 22.0416 21.8661 22.0416L10.1067 22.0404ZM15.9061 20.1387C18.129 20.1387 19.9107 18.3976 19.9107 16.1078C19.9127 15.5814 19.8104 15.0598 19.6099 14.573C19.4093 14.0863 19.1144 13.6441 18.7422 13.2718C18.3699 12.8996 17.9277 12.6047 17.4409 12.4041C16.9542 12.2035 16.4326 12.1013 15.9061 12.1033C13.6833 12.1033 11.8747 13.8844 11.8747 16.1078C11.873 16.6377 11.9762 17.1626 12.1782 17.6525C12.3802 18.1423 12.6771 18.5874 13.0518 18.962C13.4265 19.3366 13.8716 19.6335 14.3614 19.8354C14.8513 20.0374 15.3763 20.1404 15.9061 20.1387ZM21.169 14.3261C21.665 14.3261 22.0804 13.9244 22.0667 13.4158C22.0667 12.9067 21.665 12.505 21.1696 12.505C20.6741 12.505 20.2587 12.9067 20.2587 13.4158C20.2587 13.9244 20.6736 14.3261 21.169 14.3261ZM15.9067 18.9736C15.5301 18.9743 15.157 18.9007 14.8089 18.7569C14.4608 18.6131 14.1446 18.402 13.8783 18.1357C13.6119 17.8694 13.4008 17.5531 13.2571 17.205C13.1133 16.857 13.0397 16.4839 13.0404 16.1073C13.0404 14.5273 14.3261 13.2547 15.9067 13.2547C16.6632 13.2553 17.3885 13.5561 17.9233 14.0911C18.4582 14.626 18.7588 15.3514 18.7593 16.1078C18.7604 16.4834 18.6875 16.8555 18.5447 17.2028C18.4019 17.5501 18.192 17.8659 17.9271 18.1321C17.6621 18.3982 17.3473 18.6096 17.0007 18.7539C16.654 18.8983 16.2822 18.973 15.9067 18.9736Z" fill="#868686"/>
    </symbol>

    <symbol id="check" viewBox="0 0 11 8" fill="currentColor">
      <path d="M3.95272 7.48037C3.75827 7.48037 3.57355 7.40259 3.43744 7.26648L0.686052 4.51509C0.404108 4.23314 0.404108 3.76648 0.686052 3.48453C0.967997 3.20259 1.43466 3.20259 1.71661 3.48453L3.95272 5.72064L8.94994 0.723421C9.23189 0.441477 9.69855 0.441477 9.9805 0.723421C10.2624 1.00537 10.2624 1.47203 9.9805 1.75398L4.468 7.26648C4.33189 7.40259 4.14716 7.48037 3.95272 7.48037Z" fill="currentColor"/>
    </symbol>
    <symbol id = 'nav-more' width="24" height="24" viewBox="0 0 24 24" fill="none">
      <path d="M12 12.5C12.1326 12.5 12.2598 12.4473 12.3536 12.3536C12.4473 12.2598 12.5 12.1326 12.5 12C12.5 11.8674 12.4473 11.7402 12.3536 11.6464C12.2598 11.5527 12.1326 11.5 12 11.5C11.8674 11.5 11.7402 11.5527 11.6464 11.6464C11.5527 11.7402 11.5 11.8674 11.5 12C11.5 12.1326 11.5527 12.2598 11.6464 12.3536C11.7402 12.4473 11.8674 12.5 12 12.5ZM12 20.5C12.1326 20.5 12.2598 20.4473 12.3536 20.3536C12.4473 20.2598 12.5 20.1326 12.5 20C12.5 19.8674 12.4473 19.7402 12.3536 19.6464C12.2598 19.5527 12.1326 19.5 12 19.5C11.8674 19.5 11.7402 19.5527 11.6464 19.6464C11.5527 19.7402 11.5 19.8674 11.5 20C11.5 20.1326 11.5527 20.2598 11.6464 20.3536C11.7402 20.4473 11.8674 20.5 12 20.5ZM12 4.5C12.1326 4.5 12.2598 4.44732 12.3536 4.35355C12.4473 4.25979 12.5 4.13261 12.5 4C12.5 3.86739 12.4473 3.74021 12.3536 3.64645C12.2598 3.55268 12.1326 3.5 12 3.5C11.8674 3.5 11.7402 3.55268 11.6464 3.64645C11.5527 3.74021 11.5 3.86739 11.5 4C11.5 4.13261 11.5527 4.25979 11.6464 4.35355C11.7402 4.44732 11.8674 4.5 12 4.5Z" fill="white" stroke="white" stroke-width="1.5" stroke-linecap="round" stroke-linejoin="round"/>
    </symbol>
    <symbol id = "arrow-left" width="24" height="24" viewBox="0 0 24 24" fill="none">
      <path d="M4.20639 11.6464L3.85283 12L4.20639 12.3535L9.74639 17.8935C9.84113 17.9883 9.84113 18.1517 9.74639 18.2464L9.74029 18.2525L9.73441 18.2588C9.70417 18.2912 9.6453 18.32 9.56994 18.32C9.50539 18.32 9.44478 18.2977 9.39349 18.2464L3.32349 12.1764C3.22876 12.0817 3.22876 11.9183 3.32349 11.8235L9.39349 5.75355C9.48823 5.65881 9.65165 5.65881 9.74639 5.75355C9.84113 5.84829 9.84113 6.0117 9.74639 6.10644L4.20639 11.6464Z" fill="white" stroke="white"/>
      <path d="M20.4999 12.75H3.66992C3.25992 12.75 2.91992 12.41 2.91992 12C2.91992 11.59 3.25992 11.25 3.66992 11.25H20.4999C20.9099 11.25 21.2499 11.59 21.2499 12C21.2499 12.41 20.9099 12.75 20.4999 12.75Z" fill="white"/>
    </symbol>
    <symbol id='more-square' width="24" height="24" viewBox="0 0 24 24" fill="none" >
      <path d="M12 13.4C11.328 13.4 10.8 12.86 10.8 12.2C10.8 11.54 11.34 11 12 11C12.66 11 13.2 11.54 13.2 12.2C13.2 12.86 12.672 13.4 12 13.4Z" fill="#777777"/>
      <path d="M16.8 13.4C16.128 13.4 15.6 12.86 15.6 12.2C15.6 11.54 16.14 11 16.8 11C17.46 11 18 11.54 18 12.2C18 12.86 17.472 13.4 16.8 13.4Z" fill="#777777"/>
      <path d="M7.2 13.4C6.528 13.4 6 12.86 6 12.2C6 11.54 6.54 11 7.2 11C7.86 11 8.4 11.54 8.4 12.2C8.4 12.86 7.872 13.4 7.2 13.4Z" fill="#777777"/>
    </symbol>
    <symbol id='message' width="24" height="24" viewBox="0 0 24 24" fill="none">
      <path d="M16 22.3199C15.66 22.3199 15.32 22.22 15.03 22.03L10.77 19.1899H7C3.56 19.1899 1.25 16.8799 1.25 13.4399V7.43994C1.25 3.99994 3.56 1.68994 7 1.68994H17C20.44 1.68994 22.75 3.99994 22.75 7.43994V13.4399C22.75 16.6199 20.77 18.84 17.75 19.15V20.5699C17.75 21.2199 17.4 21.8099 16.83 22.1099C16.57 22.2499 16.28 22.3199 16 22.3199ZM7 3.17993C4.42 3.17993 2.75 4.84993 2.75 7.42993V13.4299C2.75 16.0099 4.42 17.6799 7 17.6799H11C11.15 17.6799 11.29 17.7199 11.42 17.8099L15.87 20.77C15.98 20.84 16.08 20.81 16.13 20.78C16.18 20.75 16.26 20.6899 16.26 20.5599V18.4299C16.26 18.0199 16.6 17.6799 17.01 17.6799C19.59 17.6799 21.26 16.0099 21.26 13.4299V7.42993C21.26 4.84993 19.59 3.17993 17.01 3.17993H7Z" fill="#777777"/>
    </symbol>
    <symbol width="24" height="24" viewBox="0 0 24 24" fill="none" id='heart-fill'>
      <path d="M16.44 3.09998C14.63 3.09998 13.01 3.97998 12 5.32998C10.99 3.97998 9.37 3.09998 7.56 3.09998C4.49 3.09998 2 5.59998 2 8.68998C2 9.87998 2.19 10.98 2.52 12C4.1 17 8.97 19.99 11.38 20.81C11.72 20.93 12.28 20.93 12.62 20.81C15.03 19.99 19.9 17 21.48 12C21.81 10.98 22 9.87998 22 8.68998C22 5.59998 19.51 3.09998 16.44 3.09998Z" fill="#FF614B"/>
    </symbol>
    <symbol width="24" height="24" viewBox="0 0 24 24" fill="none" id='heart-line'>
      <path d="M12 21.65C11.69 21.65 11.39 21.61 11.14 21.52C7.32 20.21 1.25 15.56 1.25 8.68998C1.25 5.18998 4.08 2.34998 7.56 2.34998C9.25 2.34998 10.83 3.00998 12 4.18998C13.17 3.00998 14.75 2.34998 16.44 2.34998C19.92 2.34998 22.75 5.19998 22.75 8.68998C22.75 15.57 16.68 20.21 12.86 21.52C12.61 21.61 12.31 21.65 12 21.65ZM7.56 3.84998C4.91 3.84998 2.75 6.01998 2.75 8.68998C2.75 15.52 9.32 19.32 11.63 20.11C11.81 20.17 12.2 20.17 12.38 20.11C14.68 19.32 21.26 15.53 21.26 8.68998C21.26 6.01998 19.1 3.84998 16.45 3.84998C14.93 3.84998 13.52 4.55998 12.61 5.78998C12.33 6.16998 11.69 6.16998 11.41 5.78998C10.48 4.54998 9.08 3.84998 7.56 3.84998Z" fill="#636363"/>
    </symbol>
    <symbol width="24" height="24" viewBox="0 0 24 24" fill="none" id='select-default'>
      <path d="M12 22.75C6.07 22.75 1.25 17.93 1.25 12C1.25 6.07 6.07 1.25 12 1.25C17.93 1.25 22.75 6.07 22.75 12C22.75 17.93 17.93 22.75 12 22.75ZM12 2.75C6.9 2.75 2.75 6.9 2.75 12C2.75 17.1 6.9 21.25 12 21.25C17.1 21.25 21.25 17.1 21.25 12C21.25 6.9 17.1 2.75 12 2.75Z" fill="white"/>
    </symbol>
    <symbol width="24" height="24" viewBox="0 0 24 24" fill="none" id = 'select-vote'>
      <path d="M12 22C17.5228 22 22 17.5228 22 12C22 6.47715 17.5228 2 12 2C6.47715 2 2 6.47715 2 12C2 17.5228 6.47715 22 12 22Z" fill="#53251D"/>
      <path d="M10.58 15.5801C10.38 15.5801 10.19 15.5001 10.05 15.3601L7.22 12.5301C6.93 12.2401 6.93 11.7601 7.22 11.4701C7.51 11.1801 7.99 11.1801 8.28 11.4701L10.58 13.7701L15.72 8.6301C16.01 8.3401 16.49 8.3401 16.78 8.6301C17.07 8.9201 17.07 9.4001 16.78 9.6901L11.11 15.3601C10.97 15.5001 10.78 15.5801 10.58 15.5801Z" fill="#FF614B"/>
    </symbol>

    <symbol id="info-circle" width="16" height="16" fill="currentColor" viewBox="0 0 16 16">
      <path d="M8 15A7 7 0 1 1 8 1a7 7 0 0 1 0 14m0 1A8 8 0 1 0 8 0a8 8 0 0 0 0 16"/>
      <path d="m8.93 6.588-2.29.287-.082.38.45.083c.294.07.352.176.288.469l-.738 3.468c-.194.897.105 1.319.808 1.319.545 0 1.178-.252 1.465-.598l.088-.416c-.2.176-.492.246-.686.246-.275 0-.375-.193-.304-.533zM9 4.5a1 1 0 1 1-2 0 1 1 0 0 1 2 0"/>
    </symbol>
    <symbol width="24" height="24" viewBox="0 0 24 24" fill="none" id='gallery'>
    <path d="M14.5 20.9583H9.49996C4.97496 20.9583 3.04163 19.025 3.04163 14.5V9.49996C3.04163 4.97496 4.97496 3.04163 9.49996 3.04163H14.5C19.025 3.04163 20.9583 4.97496 20.9583 9.49996V14.5C20.9583 19.025 19.025 20.9583 14.5 20.9583ZM9.49996 4.29163C5.65829 4.29163 4.29163 5.65829 4.29163 9.49996V14.5C4.29163 18.3416 5.65829 19.7083 9.49996 19.7083H14.5C18.3416 19.7083 19.7083 18.3416 19.7083 14.5V9.49996C19.7083 5.65829 18.3416 4.29163 14.5 4.29163H9.49996Z" fill="#636363"/>
    <path d="M9.50004 10.9583C8.23337 10.9583 7.20837 9.93333 7.20837 8.66667C7.20837 7.4 8.23337 6.375 9.50004 6.375C10.7667 6.375 11.7917 7.4 11.7917 8.66667C11.7917 9.93333 10.7667 10.9583 9.50004 10.9583ZM9.50004 7.625C8.92504 7.625 8.45837 8.09167 8.45837 8.66667C8.45837 9.24167 8.92504 9.70833 9.50004 9.70833C10.075 9.70833 10.5417 9.24167 10.5417 8.66667C10.5417 8.09167 10.075 7.625 9.50004 7.625Z" fill="#636363"/>
    <path d="M4.22497 18.4167C4.02497 18.4167 3.82497 18.3167 3.70831 18.1417C3.51664 17.8583 3.59164 17.4667 3.88331 17.275L7.99164 14.5167C8.89164 13.9083 10.1333 13.9833 10.95 14.675L11.225 14.9167C11.6416 15.275 12.35 15.275 12.7583 14.9167L16.225 11.9417C17.1083 11.1833 18.5 11.1833 19.3916 11.9417L20.75 13.1083C21.0083 13.3333 21.0416 13.725 20.8166 13.9917C20.5916 14.25 20.2 14.2833 19.9333 14.0583L18.575 12.8917C18.1583 12.5333 17.45 12.5333 17.0333 12.8917L13.5666 15.8667C12.6833 16.625 11.2916 16.625 10.4 15.8667L10.125 15.625C9.74164 15.3 9.10831 15.2667 8.68331 15.5583L4.57497 18.3167C4.46664 18.3833 4.34164 18.4167 4.22497 18.4167Z" fill="#636363"/>
    </symbol>

    <symbol width="64" height="64" viewBox="0 0 64 64" fill="none" id='warning'>
      <path d="M32 6.5C26.9566 6.5 22.0264 7.99555 17.833 10.7975C13.6395 13.5995 10.3711 17.5821 8.44107 22.2416C6.51103 26.9011 6.00605 32.0283 6.98997 36.9748C7.97389 41.9213 10.4025 46.465 13.9688 50.0312C17.535 53.5975 22.0787 56.0261 27.0252 57.01C31.9717 57.9939 37.0989 57.489 41.7584 55.5589C46.4179 53.6289 50.4005 50.3605 53.2025 46.167C56.0044 41.9736 57.5 37.0434 57.5 32C57.4921 25.2394 54.8029 18.758 50.0224 13.9775C45.242 9.19709 38.7606 6.50794 32 6.5ZM32 54.5C27.5499 54.5 23.1998 53.1804 19.4997 50.7081C15.7996 48.2357 12.9157 44.7217 11.2127 40.6104C9.50973 36.499 9.06416 31.975 9.93233 27.6105C10.8005 23.2459 12.9434 19.2368 16.0901 16.0901C19.2368 12.9434 23.2459 10.8005 27.6105 9.93233C31.975 9.06416 36.499 9.50974 40.6104 11.2127C44.7217 12.9157 48.2357 15.7996 50.7081 19.4997C53.1804 23.1998 54.5 27.5499 54.5 32C54.4934 37.9653 52.1207 43.6845 47.9026 47.9026C43.6845 52.1207 37.9653 54.4934 32 54.5ZM30.5 34V20C30.5 19.6022 30.658 19.2206 30.9393 18.9393C31.2206 18.658 31.6022 18.5 32 18.5C32.3978 18.5 32.7794 18.658 33.0607 18.9393C33.342 19.2206 33.5 19.6022 33.5 20V34C33.5 34.3978 33.342 34.7794 33.0607 35.0607C32.7794 35.342 32.3978 35.5 32 35.5C31.6022 35.5 31.2206 35.342 30.9393 35.0607C30.658 34.7794 30.5 34.3978 30.5 34ZM34.5 43C34.5 43.4944 34.3534 43.9778 34.0787 44.3889C33.804 44.8 33.4135 45.1205 32.9567 45.3097C32.4999 45.4989 31.9972 45.5484 31.5123 45.452C31.0273 45.3555 30.5819 45.1174 30.2322 44.7678C29.8826 44.4181 29.6445 43.9727 29.548 43.4877C29.4516 43.0028 29.5011 42.5001 29.6903 42.0433C29.8795 41.5865 30.1999 41.196 30.6111 40.9213C31.0222 40.6466 31.5055 40.5 32 40.5C32.663 40.5 33.2989 40.7634 33.7678 41.2322C34.2366 41.7011 34.5 42.337 34.5 43Z" fill="#636363"/>
    </symbol>
    <symbol width="16" height="16" viewBox="0 0 16 16" fill="none" id='like'>
      <path d="M8.00016 14.4331C7.7935 14.4331 7.5935 14.4064 7.42683 14.3464C4.88016 13.4731 0.833496 10.3731 0.833496 5.79307C0.833496 3.45974 2.72016 1.56641 5.04016 1.56641C6.16683 1.56641 7.22016 2.00641 8.00016 2.79307C8.78016 2.00641 9.8335 1.56641 10.9602 1.56641C13.2802 1.56641 15.1668 3.46641 15.1668 5.79307C15.1668 10.3797 11.1202 13.4731 8.5735 14.3464C8.40683 14.4064 8.20683 14.4331 8.00016 14.4331ZM5.04016 2.56641C3.2735 2.56641 1.8335 4.01307 1.8335 5.79307C1.8335 10.3464 6.2135 12.8797 7.7535 13.4064C7.8735 13.4464 8.1335 13.4464 8.2535 13.4064C9.78683 12.8797 14.1735 10.3531 14.1735 5.79307C14.1735 4.01307 12.7335 2.56641 10.9668 2.56641C9.9535 2.56641 9.0135 3.03974 8.40683 3.85974C8.22016 4.11307 7.7935 4.11307 7.60683 3.85974C6.98683 3.03307 6.0535 2.56641 5.04016 2.56641Z" fill="white"/>
    </symbol>
    <symbol width="16" height="16" viewBox="0 0 16 16" fill="none" id='message-2'>
      <path d="M10.6668 14.8803C10.4402 14.8803 10.2135 14.8136 10.0202 14.687L7.18016 12.7936H4.66683C2.3735 12.7936 0.833496 11.2536 0.833496 8.96029V4.96029C0.833496 2.66695 2.3735 1.12695 4.66683 1.12695H11.3335C13.6268 1.12695 15.1668 2.66695 15.1668 4.96029V8.96029C15.1668 11.0803 13.8468 12.5603 11.8335 12.767V13.7136C11.8335 14.147 11.6002 14.5403 11.2202 14.7403C11.0468 14.8336 10.8535 14.8803 10.6668 14.8803ZM4.66683 2.12028C2.94683 2.12028 1.8335 3.23361 1.8335 4.95361V8.95361C1.8335 10.6736 2.94683 11.7869 4.66683 11.7869H7.3335C7.4335 11.7869 7.52684 11.8136 7.61351 11.8736L10.5802 13.847C10.6535 13.8936 10.7202 13.8736 10.7535 13.8536C10.7868 13.8336 10.8402 13.7936 10.8402 13.7069V12.2869C10.8402 12.0136 11.0668 11.7869 11.3402 11.7869C13.0602 11.7869 14.1735 10.6736 14.1735 8.95361V4.95361C14.1735 3.23361 13.0602 2.12028 11.3402 2.12028H4.66683Z" fill="white"/>
    </symbol>
    <symbol width="16" height="16" viewBox="0 0 16 16" fill="none" id='check-circle'>
      <path d="M8.00016 15.1663C4.04683 15.1663 0.833496 11.953 0.833496 7.99967C0.833496 4.04634 4.04683 0.833008 8.00016 0.833008C11.9535 0.833008 15.1668 4.04634 15.1668 7.99967C15.1668 11.953 11.9535 15.1663 8.00016 15.1663ZM8.00016 1.83301C4.60016 1.83301 1.8335 4.59967 1.8335 7.99967C1.8335 11.3997 4.60016 14.1663 8.00016 14.1663C11.4002 14.1663 14.1668 11.3997 14.1668 7.99967C14.1668 4.59967 11.4002 1.83301 8.00016 1.83301Z" fill="white"/>
      <path d="M7.05346 10.3867C6.92012 10.3867 6.79346 10.3334 6.70012 10.2401L4.81346 8.3534C4.62012 8.16007 4.62012 7.84007 4.81346 7.64673C5.00679 7.4534 5.32679 7.4534 5.52012 7.64673L7.05346 9.18007L10.4801 5.7534C10.6735 5.56007 10.9935 5.56007 11.1868 5.7534C11.3801 5.94673 11.3801 6.26673 11.1868 6.46006L7.40679 10.2401C7.31346 10.3334 7.18679 10.3867 7.05346 10.3867Z" fill="white"/>
    </symbol>
    <symbol width="16" height="16" viewBox="0 0 16 16" fill="none" id='log-out'>
      <path d="M10.1602 14.8467H10.0735C7.11351 14.8467 5.68684 13.68 5.44017 11.0667C5.41351 10.7933 5.61351 10.5467 5.89351 10.52C6.16017 10.4933 6.41351 10.7 6.44017 10.9733C6.63351 13.0667 7.62017 13.8467 10.0802 13.8467H10.1668C12.8802 13.8467 13.8402 12.8867 13.8402 10.1733V5.82665C13.8402 3.11332 12.8802 2.15332 10.1668 2.15332H10.0802C7.60684 2.15332 6.62017 2.94665 6.44017 5.07999C6.40684 5.35332 6.17351 5.55999 5.89351 5.53332C5.61351 5.51332 5.41351 5.26665 5.43351 4.99332C5.66017 2.33999 7.09351 1.15332 10.0735 1.15332H10.1602C13.4335 1.15332 14.8335 2.55332 14.8335 5.82665V10.1733C14.8335 13.4467 13.4335 14.8467 10.1602 14.8467Z" fill="white"/>
      <path d="M10.0002 8.5H2.41357C2.14024 8.5 1.91357 8.27333 1.91357 8C1.91357 7.72667 2.14024 7.5 2.41357 7.5H10.0002C10.2736 7.5 10.5002 7.72667 10.5002 8C10.5002 8.27333 10.2736 8.5 10.0002 8.5Z" fill="white"/>
      <path d="M3.90012 10.7336C3.77346 10.7336 3.64679 10.6869 3.54679 10.5869L1.31346 8.35356C1.12012 8.16022 1.12012 7.84022 1.31346 7.64689L3.54679 5.41355C3.74012 5.22022 4.06012 5.22022 4.25346 5.41355C4.44679 5.60689 4.44679 5.92689 4.25346 6.12022L2.37346 8.00022L4.25346 9.88022C4.44679 10.0736 4.44679 10.3936 4.25346 10.5869C4.16012 10.6869 4.02679 10.7336 3.90012 10.7336Z" fill="white"/>
    </symbol>
    <symbol width="16" height="16" viewBox="0 0 16 16" fill="none" id='write'>
      <path d="M3.69332 13.0137C3.28666 13.0137 2.90666 12.8737 2.63332 12.6137C2.28666 12.287 2.11999 11.7937 2.17999 11.2604L2.42666 9.10036C2.47332 8.69369 2.71999 8.15369 3.00666 7.86036L8.47999 2.06702C9.84666 0.620358 11.2733 0.580358 12.72 1.94703C14.1667 3.31369 14.2067 4.74036 12.84 6.18703L7.36666 11.9804C7.08666 12.2804 6.56666 12.5604 6.15999 12.627L4.01332 12.9937C3.89999 13.0004 3.79999 13.0137 3.69332 13.0137ZM10.62 1.94036C10.1067 1.94036 9.65999 2.26036 9.20666 2.74036L3.73332 8.54036C3.59999 8.68036 3.44666 9.01369 3.41999 9.20703L3.17332 11.367C3.14666 11.587 3.19999 11.767 3.31999 11.8804C3.43999 11.9937 3.61999 12.0337 3.83999 12.0004L5.98666 11.6337C6.17999 11.6004 6.49999 11.427 6.63332 11.287L12.1067 5.49369C12.9333 4.61369 13.2333 3.80036 12.0267 2.66702C11.4933 2.15369 11.0333 1.94036 10.62 1.94036Z" fill="white"/>
      <path d="M11.56 7.30023C11.5466 7.30023 11.5266 7.30023 11.5133 7.30023C9.4333 7.09356 7.75996 5.51356 7.43996 3.44689C7.39996 3.17356 7.58663 2.92023 7.85996 2.87356C8.1333 2.83356 8.38663 3.02023 8.4333 3.29356C8.68663 4.90689 9.9933 6.14689 11.62 6.30689C11.8933 6.33356 12.0933 6.58022 12.0666 6.85356C12.0333 7.10689 11.8133 7.30023 11.56 7.30023Z" fill="white"/>
      <path d="M14 15.167H2C1.72667 15.167 1.5 14.9403 1.5 14.667C1.5 14.3937 1.72667 14.167 2 14.167H14C14.2733 14.167 14.5 14.3937 14.5 14.667C14.5 14.9403 14.2733 15.167 14 15.167Z" fill="white"/>
    </symbol>
    <symbol width="160" height="84" viewBox="0 0 160 84" fill="none" xmlns="http://www.w3.org/2000/svg" id="logo-lg">
      <g clip-path="url(#clip0_38_3952)">
        <path d="M41.8649 31.1579C41.3545 31.1579 40.8553 31.0569 40.3841 30.8606C39.913 30.6643 39.4923 30.3839 39.1277 30.0193L32.4699 23.3615C32.1334 23.0362 31.8529 22.6267 31.651 22.1668C31.4547 21.7069 31.3538 21.2189 31.3481 20.7197C31.3481 20.2205 31.4379 19.7325 31.6286 19.267C31.8193 18.8015 32.0941 18.3864 32.4475 18.033C32.8009 17.6797 33.2159 17.4048 33.6815 17.2141C34.1414 17.0234 34.635 16.9449 35.1342 16.9337C35.6334 16.9337 36.1213 17.0403 36.5813 17.2366C37.0412 17.4329 37.4506 17.7189 37.7984 18.0779L41.8649 22.1444L52.6957 11.3136C53.0434 10.9658 53.4529 10.691 53.9128 10.5003C54.8271 10.1245 55.8703 10.1189 56.7846 10.5003C57.2389 10.691 57.654 10.9658 58.0017 11.3136C58.7084 12.0203 59.1011 12.9626 59.1011 13.9666C59.1011 14.9706 58.7084 15.9129 58.0017 16.6196L44.602 30.0193C44.243 30.3783 43.8168 30.6643 43.3456 30.8606C42.8745 31.0569 42.3753 31.1579 41.8649 31.1579Z" fill="#FF5CA0"/>
        <path d="M0 36.2061C0 34.9834 0.661852 34.3215 1.8846 34.3215H6.69144C7.91418 34.3215 8.57604 34.9834 8.57604 36.2061V37.3391C10.8364 35.5499 13.4782 34.3215 16.4902 34.3215C26.5751 34.3215 32.7897 41.1083 32.7897 50.8118C32.7897 60.5152 26.5694 67.302 16.4902 67.302C13.3829 67.302 10.7411 66.3597 8.57604 64.8509V81.2457C8.57604 82.4685 7.91418 83.1303 6.69144 83.1303H1.8846C0.661852 83.1303 0 82.4685 0 81.2457V36.2061ZM24.2193 50.8118C24.2193 45.4384 21.0166 41.9553 15.7386 41.9553C12.8164 41.9553 10.4606 42.8976 8.57604 45.444V56.6562C10.1802 58.4455 12.4406 59.6738 15.7386 59.6738C21.0166 59.6738 24.2193 56.1851 24.2193 50.8174V50.8118Z" fill="#FF5CA0"/>
        <path d="M46.5484 65.3219C46.5484 66.5446 45.8866 67.2065 44.6639 67.2065H39.857C38.6343 67.2065 37.9724 66.5446 37.9724 65.3219V37.1483C37.9724 35.9255 38.6343 35.2637 39.857 35.2637H44.6639C45.8866 35.2637 46.5484 35.9255 46.5484 37.1483V65.3219Z" fill="#FF5CA0"/>
        <path d="M69.0682 59.5728C73.1179 59.5728 75.6643 58.064 77.0778 54.3901C77.7396 52.8813 78.0201 52.786 78.3959 52.786C78.6763 52.786 78.9624 52.8813 79.2428 52.9767L83.7636 54.5808C85.177 55.2427 85.2724 55.8036 85.2724 56.185C85.2724 56.5664 85.0817 57.0319 84.8012 57.5984C81.7836 63.9141 77.3582 67.2121 69.0626 67.2121C58.7927 67.2121 51.8208 61.2779 51.8208 50.7219C51.8208 40.1659 58.7927 34.2317 69.0626 34.2317C77.2628 34.2317 81.4078 37.339 84.8012 43.8454C85.0817 44.4119 85.2724 44.883 85.2724 45.2588C85.2724 45.5393 85.2724 46.0104 83.8589 46.6723L79.3381 48.3662C78.9624 48.5569 78.5866 48.6466 78.3005 48.6466C77.9247 48.6466 77.5489 48.5513 77.0778 47.1378C75.855 43.6491 73.2132 41.8598 69.0682 41.8598C63.4144 41.8598 60.3968 45.1579 60.3968 50.7163C60.3968 56.2747 63.4144 59.5728 69.0682 59.5728Z" fill="#FF5CA0"/>
        <path d="M99.4125 65.4173C99.4125 66.64 98.7506 67.3019 97.5279 67.3019H92.721C91.4983 67.3019 90.8364 66.64 90.8364 65.4173V2.75447C90.8364 1.53173 91.4983 0.869873 92.721 0.869873H97.5279C98.7506 0.869873 99.4125 1.53173 99.4125 2.75447V45.5337L111 35.3591C112.038 34.3215 112.694 34.3215 113.827 34.3215H121.366C122.779 34.3215 122.779 35.0731 122.779 35.1684C122.779 35.5442 122.499 36.0154 121.837 36.5818L108.925 47.8894L122.964 64.7554C123.531 65.4173 123.811 65.9782 123.811 66.3596C123.811 66.9261 123.245 67.2065 122.022 67.2065H115.897C114.484 67.2065 114.012 66.5447 112.975 65.4173L102.705 53.2628L99.4069 56.185V65.4173H99.4125Z" fill="#FF5CA0"/>
        <path d="M151.424 65.1369C148.877 66.6457 145.77 67.2122 142.377 67.2122C132.292 67.2122 127.205 62.5007 127.205 53.1731V36.2117C127.205 34.989 127.866 34.3271 129.089 34.3271H133.896C135.119 34.3271 135.781 34.989 135.781 36.2117V51.4792C135.781 57.2284 137.665 59.3934 143.414 59.3934C147.935 59.3934 151.424 56.9423 151.424 52.7973V36.2117C151.424 34.989 152.086 34.3271 153.308 34.3271H158.115C159.338 34.3271 160 34.989 160 36.2117V63.9142C160 77.7682 154.251 82.7602 144.828 82.7602C137.194 82.7602 131.54 79.0863 128.999 73.713C128.719 73.0511 128.528 72.4902 128.528 72.1088C128.528 71.8284 128.433 71.447 129.661 70.7907L133.997 68.6257C134.468 68.435 134.749 68.3452 135.035 68.3452C135.321 68.3452 135.601 68.1545 136.639 69.9494C138.619 73.6232 140.599 74.9413 144.839 74.9413C149.079 74.9413 151.34 71.6433 151.435 65.1425L151.424 65.1369Z" fill="#FF5CA0"/>
      </g>
      <defs>
        <clipPath id="clip0_38_3952">
          <rect width="160" height="82.2604" fill="white" transform="translate(0 0.869873)"/>
        </clipPath>
      </defs>
    </symbol>
    <symbol width="87" height="45" viewBox="0 0 87 45" fill="none" xmlns="http://www.w3.org/2000/svg" id="logo-sm">
      <g clip-path="url(#clip0_28_611)">
        <path d="M22.7641 16.569C22.4865 16.569 22.2151 16.5138 21.9589 16.4064C21.7027 16.299 21.474 16.1456 21.2757 15.9461L17.6556 12.304C17.4726 12.1261 17.3201 11.9021 17.2103 11.6505C17.1035 11.3989 17.0486 11.1319 17.0456 10.8589C17.0456 10.5858 17.0944 10.3188 17.1981 10.0642C17.3018 9.80949 17.4512 9.58243 17.6434 9.38913C17.8355 9.19582 18.0612 9.04548 18.3143 8.94115C18.5644 8.83683 18.8328 8.79387 19.1042 8.78774C19.3757 8.78774 19.641 8.84604 19.8911 8.95343C20.1412 9.06082 20.3638 9.2173 20.5529 9.41367L22.7641 11.6382L28.6533 5.71328C28.8424 5.52304 29.065 5.3727 29.3151 5.26837C29.8123 5.0628 30.3795 5.05973 30.8767 5.26837C31.1237 5.3727 31.3494 5.52304 31.5385 5.71328C31.9228 6.09989 32.1362 6.61537 32.1362 7.1646C32.1362 7.71382 31.9228 8.2293 31.5385 8.61591L24.2524 15.9461C24.0572 16.1425 23.8254 16.299 23.5692 16.4064C23.313 16.5138 23.0416 16.569 22.7641 16.569Z" fill="#FF5CA0"/>
        <path d="M0 19.3305C0 18.6616 0.359882 18.2996 1.02475 18.2996H3.63847C4.30334 18.2996 4.66322 18.6616 4.66322 19.3305V19.9503C5.89231 18.9715 7.32879 18.2996 8.96656 18.2996C14.4502 18.2996 17.8294 22.0122 17.8294 27.3204C17.8294 32.6286 14.4471 36.3413 8.96656 36.3413C7.27694 36.3413 5.84046 35.8258 4.66322 35.0004V43.9691C4.66322 44.638 4.30334 45.0001 3.63847 45.0001H1.02475C0.359882 45.0001 0 44.638 0 43.9691V19.3305ZM13.1692 27.3204C13.1692 24.381 11.4278 22.4755 8.55788 22.4755C6.96891 22.4755 5.68797 22.991 4.66322 24.384V30.5176C5.53548 31.4964 6.76457 32.1684 8.55788 32.1684C11.4278 32.1684 13.1692 30.2599 13.1692 27.3235V27.3204Z" fill="#FF5CA0"/>
        <path d="M25.3107 35.2581C25.3107 35.927 24.9508 36.289 24.2859 36.289H21.6722C21.0073 36.289 20.6475 35.927 20.6475 35.2581V19.8459C20.6475 19.177 21.0073 18.8149 21.6722 18.8149H24.2859C24.9508 18.8149 25.3107 19.177 25.3107 19.8459V35.2581Z" fill="#FF5CA0"/>
        <path d="M37.5558 32.1132C39.7578 32.1132 41.1425 31.2878 41.911 29.278C42.2709 28.4527 42.4234 28.4005 42.6277 28.4005C42.7802 28.4005 42.9358 28.4527 43.0883 28.5048L45.5464 29.3824C46.315 29.7444 46.3668 30.0513 46.3668 30.2599C46.3668 30.4685 46.2632 30.7232 46.1107 31.0331C44.4698 34.488 42.0635 36.2922 37.5528 36.2922C31.9685 36.2922 28.1776 33.0459 28.1776 27.2714C28.1776 21.4968 31.9685 18.2505 37.5528 18.2505C42.0117 18.2505 44.2655 19.9503 46.1107 23.5096C46.2632 23.8195 46.3668 24.0772 46.3668 24.2828C46.3668 24.4362 46.3668 24.694 45.5983 25.056L43.1401 25.9827C42.9358 26.087 42.7314 26.1361 42.5759 26.1361C42.3716 26.1361 42.1672 26.0839 41.911 25.3107C41.2462 23.4022 39.8097 22.4234 37.5558 22.4234C34.4816 22.4234 32.8408 24.2276 32.8408 27.2683C32.8408 30.309 34.4816 32.1132 37.5558 32.1132Z" fill="#FF5CA0"/>
        <path d="M54.0556 35.3102C54.0556 35.9791 53.6957 36.3412 53.0308 36.3412H50.4171C49.7522 36.3412 49.3923 35.9791 49.3923 35.3102V1.03096C49.3923 0.362062 49.7522 0 50.4171 0H53.0308C53.6957 0 54.0556 0.362062 54.0556 1.03096V24.433L60.3565 18.8671C60.9208 18.2995 61.2776 18.2995 61.8937 18.2995H65.9927C66.7612 18.2995 66.7612 18.7106 66.7612 18.7628C66.7612 18.9684 66.6087 19.2261 66.2488 19.536L59.2281 25.7217L66.8619 34.9482C67.1699 35.3102 67.3224 35.6171 67.3224 35.8257C67.3224 36.1356 67.0144 36.289 66.3495 36.289H63.0191C62.2505 36.289 61.9943 35.927 61.4301 35.3102L55.8458 28.6612L54.0525 30.2598V35.3102H54.0556Z" fill="#FF5CA0"/>
        <path d="M82.3368 35.1568C80.9522 35.9822 79.2625 36.2921 77.4174 36.2921C71.9338 36.2921 69.1675 33.7147 69.1675 28.612V19.3334C69.1675 18.6646 69.5274 18.3025 70.1923 18.3025H72.806C73.4709 18.3025 73.8308 18.6646 73.8308 19.3334V27.6854C73.8308 30.8304 74.8555 32.0148 77.9816 32.0148C80.4398 32.0148 82.3368 30.674 82.3368 28.4065V19.3334C82.3368 18.6646 82.6967 18.3025 83.3615 18.3025H85.9753C86.6401 18.3025 87 18.6646 87 19.3334V34.4879C87 42.0666 83.8739 44.7974 78.7502 44.7974C74.5993 44.7974 71.5251 42.7877 70.1435 39.8482C69.991 39.4862 69.8873 39.1793 69.8873 38.9707C69.8873 38.8173 69.8355 38.6086 70.5034 38.2496L72.8609 37.0653C73.1171 36.961 73.2696 36.9119 73.4251 36.9119C73.5807 36.9119 73.7332 36.8075 74.2974 37.7894C75.374 39.7992 76.4506 40.5202 78.7563 40.5202C81.062 40.5202 82.291 38.716 82.3429 35.1598L82.3368 35.1568Z" fill="#FF5CA0"/>
      </g>
      <defs>
        <clipPath id="clip0_28_611">
          <rect width="87" height="45" fill="white"/>
        </clipPath>
      </defs>
    </symbol>
</svg>

