<svg width="87" height="45" viewBox="0 0 87 45" fill="none" xmlns="http://www.w3.org/2000/svg">
<g clip-path="url(#clip0_28_611)">
<path d="M0 19.3305C0 18.6616 0.359882 18.2996 1.02475 18.2996H3.63847C4.30334 18.2996 4.66322 18.6616 4.66322 19.3305V19.9503C5.89231 18.9715 7.32879 18.2996 8.96656 18.2996C14.4502 18.2996 17.8294 22.0122 17.8294 27.3204C17.8294 32.6286 14.4471 36.3413 8.96656 36.3413C7.27694 36.3413 5.84046 35.8258 4.66322 35.0004V43.9691C4.66322 44.638 4.30334 45.0001 3.63847 45.0001H1.02475C0.359882 45.0001 0 44.638 0 43.9691V19.3305ZM13.1692 27.3204C13.1692 24.381 11.4278 22.4755 8.55788 22.4755C6.96891 22.4755 5.68797 22.991 4.66322 24.384V30.5176C5.53548 31.4964 6.76457 32.1684 8.55788 32.1684C11.4278 32.1684 13.1692 30.2599 13.1692 27.3235V27.3204Z" fill="#FF614B"/>
<path d="M20.3425 12.4759C20.3425 10.8251 21.4191 9.79419 23.0081 9.79419C24.597 9.79419 25.6736 10.8251 25.6736 12.4759C25.6736 14.1267 24.597 15.2067 23.0081 15.2067C21.4191 15.2067 20.3425 14.1236 20.3425 12.4759ZM25.3107 35.2582C25.3107 35.9271 24.9508 36.2891 24.286 36.2891H21.6722C21.0074 36.2891 20.6475 35.9271 20.6475 35.2582V19.846C20.6475 19.1771 21.0074 18.8151 21.6722 18.8151H24.286C24.9508 18.8151 25.3107 19.1771 25.3107 19.846V35.2582Z" fill="#FF614B"/>
<path d="M37.5558 32.1132C39.7578 32.1132 41.1425 31.2878 41.911 29.278C42.2709 28.4527 42.4234 28.4005 42.6277 28.4005C42.7802 28.4005 42.9358 28.4527 43.0883 28.5048L45.5464 29.3824C46.315 29.7444 46.3668 30.0513 46.3668 30.2599C46.3668 30.4685 46.2632 30.7232 46.1107 31.0331C44.4698 34.488 42.0635 36.2922 37.5528 36.2922C31.9685 36.2922 28.1776 33.0459 28.1776 27.2714C28.1776 21.4968 31.9685 18.2505 37.5528 18.2505C42.0117 18.2505 44.2655 19.9503 46.1107 23.5096C46.2632 23.8195 46.3668 24.0772 46.3668 24.2828C46.3668 24.4362 46.3668 24.694 45.5983 25.056L43.1401 25.9827C42.9358 26.087 42.7314 26.1361 42.5759 26.1361C42.3716 26.1361 42.1672 26.0839 41.911 25.3107C41.2462 23.4022 39.8097 22.4234 37.5558 22.4234C34.4816 22.4234 32.8408 24.2276 32.8408 27.2683C32.8408 30.309 34.4816 32.1132 37.5558 32.1132Z" fill="#FF614B"/>
<path d="M54.0555 35.3102C54.0555 35.9791 53.6956 36.3412 53.0308 36.3412H50.4171C49.7522 36.3412 49.3923 35.9791 49.3923 35.3102V1.03096C49.3923 0.362062 49.7522 0 50.4171 0H53.0308C53.6956 0 54.0555 0.362062 54.0555 1.03096V24.433L60.3565 18.8671C60.9207 18.2995 61.2776 18.2995 61.8936 18.2995H65.9926C66.7612 18.2995 66.7612 18.7106 66.7612 18.7628C66.7612 18.9684 66.6087 19.2261 66.2488 19.536L59.2281 25.7217L66.8618 34.9482C67.1699 35.3102 67.3224 35.6171 67.3224 35.8257C67.3224 36.1356 67.0143 36.289 66.3495 36.289H63.019C62.2505 36.289 61.9943 35.927 61.4301 35.3102L55.8458 28.6612L54.0525 30.2598V35.3102H54.0555Z" fill="#FF614B"/>
<path d="M82.3368 35.1568C80.9521 35.9822 79.2625 36.2921 77.4174 36.2921C71.9337 36.2921 69.1675 33.7147 69.1675 28.612V19.3334C69.1675 18.6646 69.5274 18.3025 70.1923 18.3025H72.806C73.4709 18.3025 73.8307 18.6646 73.8307 19.3334V27.6854C73.8307 30.8304 74.8555 32.0148 77.9816 32.0148C80.4398 32.0148 82.3368 30.674 82.3368 28.4065V19.3334C82.3368 18.6646 82.6967 18.3025 83.3615 18.3025H85.9752C86.6401 18.3025 87 18.6646 87 19.3334V34.4879C87 42.0666 83.8739 44.7974 78.7502 44.7974C74.5993 44.7974 71.5251 42.7877 70.1435 39.8482C69.991 39.4862 69.8873 39.1793 69.8873 38.9707C69.8873 38.8173 69.8354 38.6086 70.5034 38.2496L72.8609 37.0653C73.1171 36.961 73.2696 36.9119 73.4251 36.9119C73.5807 36.9119 73.7332 36.8075 74.2974 37.7894C75.374 39.7992 76.4506 40.5202 78.7563 40.5202C81.0619 40.5202 82.291 38.716 82.3429 35.1598L82.3368 35.1568Z" fill="#FF614B"/>
</g>
<defs>
<clipPath id="clip0_28_611">
<rect width="87" height="45" fill="white"/>
</clipPath>
</defs>
</svg>
